<svg width="24" height="22" viewBox="0 0 24 22" fill="" xmlns="http://www.w3.org/2000/svg">
<path d="M18.8727 0.0377151C17.8246 0.171028 16.8705 0.715434 16.1235 1.46248L5.01942 12.5665C4.53 13.0559 4.1557 13.6707 4.04334 14.3538C3.69352 16.4806 5.51306 18.3026 7.64119 17.9579C8.32425 17.8473 8.93977 17.4743 9.42905 16.985L19.5605 6.85353C19.7558 6.65825 19.7558 6.3417 19.5605 6.14642L18.8535 5.43945C18.6583 5.24417 18.3417 5.24417 18.1464 5.43945L7.91405 15.6719C7.70212 15.8833 7.42041 16 7.12008 16C6.50241 16 5.99995 15.4966 5.99995 14.8779C5.99995 14.5791 6.11667 14.2978 6.32808 14.0859L17.6714 2.74264C18.1504 2.26367 18.7871 2 19.4644 2C20.8623 2 22 3.1377 22 4.57029C22 5.23142 21.7471 5.85739 21.2872 6.33298L9.46355 18.5647C8.74786 19.3051 7.81936 19.8438 6.79711 19.9677C4.08623 20.2964 1.79231 18.0695 2.01497 15.3116C2.09939 14.2659 2.61441 13.2997 3.3562 12.5579L14.3535 1.56054C14.5488 1.36526 14.5488 1.04872 14.3535 0.853434L13.6466 0.146465C13.4513 -0.0488161 13.1347 -0.0488161 12.9395 0.146465L1.83544 11.2505C0.652125 12.4338 0.000328215 14.0066 8.98007e-08 15.7327C-0.00028116 17.3503 0.660094 18.9227 1.79498 20.0754C4.52067 22.8441 8.51142 22.4265 10.772 20.0889L22.7251 7.72264C23.5474 6.87256 24 5.75295 24 4.53565C24 1.84001 21.6363 -0.313894 18.8727 0.0377151Z" fill=""/>
</svg>
