<svg width="40" height="40" viewBox="0 0 40 40" fill="none" xmlns="http://www.w3.org/2000/svg">
<rect width="39.8936" height="39.8936" rx="19.9468" fill="url(#paint0_linear)"/>
<mask id="mask0" mask-type="alpha" maskUnits="userSpaceOnUse" x="0" y="0" width="40" height="40">
<rect width="39.8936" height="39.8936" rx="19.9468" fill="white"/>
</mask>
<g mask="url(#mask0)">
<path fill-rule="evenodd" clip-rule="evenodd" d="M34 40C34 40 33.5064 33.7167 32.3726 31.5475C32.3726 31.5475 31.8058 29.9561 30.5191 29.1652C30.5191 29.1652 25.7072 26.5799 21.0267 26H19.6017C14.9214 26.5799 9.68175 29.1754 9.68175 29.1754C8.39449 29.966 7.80443 31.5577 7.80443 31.5577C6.87978 34.6288 7.00578 40 7.00578 40H34Z" fill="white"/>
<path fill-rule="evenodd" clip-rule="evenodd" d="M19.9411 9C16.9322 9.03404 13.9587 10.9595 13.2902 13.313V13.3153C12.8767 14.7654 12.9015 15.9656 13.3877 17.4544C14.34 21.3379 17.0449 24 19.9913 24C22.8522 24 25.5323 21.4319 26.5171 17.7542C27.003 16.3333 27.2135 15.0731 26.7121 13.3153C26.0383 10.9449 23.027 9.01019 20.0064 9H19.9411Z" fill="white"/>
</g>
<defs>
<linearGradient id="paint0_linear" x1="-19.8271" y1="20.0234" x2="20.2197" y2="59.6775" gradientUnits="userSpaceOnUse">
<stop stop-color="#A1C4FD"/>
<stop offset="1" stop-color="#C2E9FB"/>
</linearGradient>
</defs>
</svg>
