<svg width="39" height="30" viewBox="0 0 39 30" fill="" xmlns="http://www.w3.org/2000/svg">
<path fill-rule="evenodd" clip-rule="evenodd" d="M6.74392 22.7435L6.46906 22.4716L6.12809 22.1384L2.69 18.6957C2.64097 18.647 2.60108 18.6068 2.51722 18.5217C2.43608 18.4395 2.40289 18.406 2.35863 18.362C2.31418 18.3176 2.28459 18.2877 2.21362 18.2156L2.08901 18.0886C1.7991 17.8011 1.52381 17.4992 1.26419 17.1842C1.02682 16.9271 0.833479 16.6325 0.692064 16.3122L0.649445 16.2003C0.397776 15.4199 0.397776 14.5801 0.649445 13.7997L0.688933 13.695C0.828421 13.3732 1.02284 13.0783 1.26332 12.8235C1.51238 12.5124 1.78022 12.2168 2.06533 11.9383C2.14614 11.8491 2.2181 11.7754 2.35846 11.6351C2.39759 11.5962 2.43196 11.5615 2.51395 11.4783L2.51434 11.4779L2.51437 11.4778C2.55639 11.4352 2.55654 11.4351 2.60077 11.3906C2.64609 11.3452 2.64612 11.3452 2.68499 11.307L2.68502 11.3069L2.68506 11.3069L6.1063 7.88844C6.21296 7.77656 6.30896 7.68107 6.45972 7.53458L6.60102 7.39444C6.65771 7.33845 6.70643 7.29087 6.75468 7.24455L10.5871 3.41885C10.7553 3.24585 10.9077 3.0948 11.1535 2.85553C11.3128 2.69236 11.4781 2.53083 11.6626 2.35676C11.8079 2.20144 11.8389 2.16908 11.8572 2.15251C12.3741 1.63664 12.9685 1.20476 13.6211 0.871303C14.2704 0.54144 14.9662 0.312597 15.678 0.193779C16.341 0.0791957 17.0123 0.0195356 17.6604 0.0158246C17.8281 0.0111864 17.9045 0.00915672 17.9991 0.00695805C18.1969 0.00235797 18.3641 0 18.5268 0H29.3376C29.584 0 29.7778 0.00402734 30.1777 0.0154059C30.8517 0.0194971 31.5242 0.0791367 32.1823 0.192681C32.8997 0.31249 33.5946 0.541631 34.2407 0.871135C34.8938 1.20268 35.4902 1.63561 36.0075 2.15345C36.5233 2.66946 36.9555 3.26284 37.2932 3.92179C37.6171 4.56872 37.8444 5.2597 37.9695 5.98373C38.0765 6.6406 38.1345 7.30453 38.1425 7.95033C38.148 8.13716 38.1504 8.28078 38.1542 8.60167L38.1568 8.82308V21.1769C38.1568 21.4486 38.152 21.7299 38.1429 22.03C38.1345 22.6955 38.0765 23.3594 37.9677 24.0274C37.8444 24.7403 37.6171 25.4313 37.2863 26.0917C36.9525 26.737 36.5223 27.3277 36.0078 27.8462C35.4902 28.3644 34.8938 28.7973 34.2426 29.1279C33.5946 29.4584 32.8997 29.6875 32.1812 29.8075C31.5213 29.9171 30.8539 29.9763 30.2027 29.9842C29.7778 29.996 29.584 30 29.3376 30H28.3491H28.3491V28.8168V27.6926H29.3375C29.5555 27.6926 29.735 27.6888 30.1564 27.6773C30.7082 27.6704 31.2587 27.6216 31.8021 27.5314C32.2868 27.4504 32.7563 27.2956 33.196 27.0714C33.6317 26.8502 34.0297 26.5613 34.3723 26.2183C34.719 25.8689 35.0104 25.4688 35.2297 25.0451C35.4525 24.6001 35.6088 24.1248 35.6918 23.6455C35.7803 23.1017 35.8283 22.552 35.8357 21.9813C35.8446 21.683 35.8491 21.4239 35.8491 21.1772V9.31755L35.8492 8.83935L35.8465 8.62911C35.8429 8.32195 35.8407 8.18765 35.8353 7.99948C35.8283 7.44851 35.7803 6.89883 35.6936 6.36607C35.6088 5.87567 35.4525 5.40037 35.2345 4.96501C35.0113 4.52944 34.7214 4.1314 34.375 3.7849C34.0297 3.43916 33.6317 3.15032 33.1941 2.92814C32.7563 2.70486 32.2868 2.55005 31.796 2.46807C31.2568 2.37505 30.7108 2.32663 30.1386 2.32288C29.735 2.31167 29.5555 2.30794 29.3375 2.30794H18.5268C18.3841 2.30794 18.2339 2.31006 18.0526 2.31428C17.9696 2.31621 17.9016 2.31799 17.7419 2.32219L17.7415 2.3222L17.6992 2.32331C17.1534 2.32666 16.6088 2.37505 16.0645 2.46911C15.5777 2.55037 15.1063 2.70544 14.6686 2.92776C14.2325 3.15059 13.8339 3.44024 13.4639 3.80878C13.3411 3.94026 13.2922 3.99173 13.2501 4.03186C13.0832 4.18928 12.94 4.32918 12.7848 4.48769C12.5329 4.73344 12.3919 4.87316 12.2305 5.03906L8.33838 8.93275C8.27532 8.98462 8.25023 9.00925 8.22257 9.03658L8.1317 9.12665C7.93704 9.31695 7.8579 9.39568 7.75699 9.50103L4.3078 12.9478L4.27325 12.9819L4.23532 13.0198L4.15695 13.0989C4.07413 13.183 4.03194 13.2256 3.98726 13.27C3.86412 13.3931 3.81352 13.4452 3.75846 13.5069C3.46326 13.7971 3.24175 14.0419 3.03714 14.3006L2.9529 14.3959C2.90277 14.4466 2.86062 14.5045 2.82779 14.5676C2.74871 14.8498 2.74849 15.1482 2.8271 15.4304C2.86463 15.5026 2.91215 15.5692 2.96832 15.6282C3.24134 15.9567 3.47126 16.2096 3.72409 16.4605L3.79293 16.5306L3.85904 16.5979C3.92545 16.6653 3.95117 16.6913 3.98743 16.7276C4.03647 16.7763 4.07636 16.8165 4.16022 16.9016C4.24136 16.9838 4.27454 17.0173 4.31935 17.0618L7.75069 20.4979L8.08659 20.826L8.31088 21.0478C8.35107 21.081 8.38925 21.1167 8.42518 21.1546L12.2433 24.9712C12.3995 25.1313 12.5573 25.2878 12.8078 25.5327C12.9335 25.6614 13.0604 25.7856 13.236 25.9542C13.2845 25.9983 13.2948 26.009 13.4079 26.1287C13.446 26.169 13.4751 26.1993 13.4903 26.2143C13.837 26.5603 14.2356 26.8499 14.6694 27.0716C15.1093 27.2951 15.5808 27.4501 16.0669 27.5313C16.6099 27.6216 17.1591 27.6704 17.7271 27.6776C17.8932 27.6822 17.9657 27.6841 18.0557 27.6862C18.237 27.6904 18.3872 27.6926 18.5298 27.6926H28.346V28.8464L28.3461 28.8757L28.3491 30H28.3461H18.5299C18.3671 30 18.1999 29.9976 18.0021 29.993C17.9076 29.9908 17.8312 29.9888 17.681 29.9845C17.0132 29.9762 16.347 29.917 15.6876 29.8073C14.9693 29.6874 14.2735 29.4586 13.6219 29.1275C12.9715 28.7952 12.3772 28.3634 11.8835 27.8701C11.8425 27.8314 11.8199 27.8079 11.7308 27.7135L11.6849 27.6653L11.6622 27.6413C11.4476 27.436 11.3046 27.2961 11.1765 27.1644C10.9335 26.9273 10.764 26.7592 10.6019 26.593L6.87168 22.8643L6.74392 22.7435ZM28.2956 9.8043C27.9071 9.41541 27.2768 9.41526 26.8882 9.80397L23.1043 13.5884L19.3204 9.81072C18.9317 9.42267 18.3021 9.4231 17.9139 9.81168C17.5255 10.2005 17.5261 10.8306 17.9151 11.2188L21.6991 14.9938L17.9273 18.7662C17.539 19.1545 17.5389 19.7841 17.927 20.1727C18.3155 20.5616 18.9457 20.5617 19.3343 20.173L23.1077 16.3991L26.8888 20.1712C27.2759 20.5574 27.9024 20.5577 28.2898 20.1719C28.679 19.7844 28.6794 19.1545 28.2908 18.7665L24.5123 14.9942L28.2952 11.2108C28.6835 10.8224 28.6837 10.1929 28.2956 9.8043Z" fill=""/>
</svg>
