<svg width="24" height="24" viewBox="0 0 24 24" fill="" xmlns="http://www.w3.org/2000/svg">
<path fill-rule="evenodd" clip-rule="evenodd" d="M9.75744 8.79872C10.223 8.6106 10.4155 8.00067 10.1875 7.43649L8.2887 2.73668C8.06076 2.17251 7.49862 1.86745 7.03303 2.05556C6.56757 2.24362 6.37497 2.85361 6.60291 3.41779L8.50176 8.11759C8.7297 8.68177 9.29198 8.98677 9.75744 8.79872Z" fill=""/>
<path fill-rule="evenodd" clip-rule="evenodd" d="M4.71889 19.7031C5.45601 18.0707 5.95282 15.8649 5.01546 13.5448C3.17347 8.98574 3.72336 5.60483 7.60668 3.88979C7.60577 3.88754 7.60444 3.88376 7.60444 3.88376C7.65312 3.8641 7.70081 3.84745 7.74922 3.82864C7.79712 3.80854 7.84299 3.78739 7.89183 3.76765C7.89183 3.76765 7.8935 3.77128 7.89441 3.77354C11.8792 2.30966 14.6233 4.35969 16.4653 8.91879C17.4027 11.2388 19.2923 12.4804 20.9565 13.1426C21.8927 13.515 21.83 14.8045 20.8632 15.1951L14.0264 17.9574L13.0486 18.3524L6.21182 21.1147C5.24505 21.5053 4.3042 20.6212 4.71889 19.7031Z" fill=""/>
<path fill-rule="evenodd" clip-rule="evenodd" d="M13.2343 21.6045C13.979 22.4391 15.1948 22.7602 16.2916 22.3171C17.3887 21.8738 18.0403 20.7977 17.9958 19.6796L17.9879 19.5797C17.9496 19.2585 17.7617 18.7816 16.9457 19.1113L13.5761 20.4727C12.6992 20.827 13.0307 21.3763 13.2343 21.6045Z" fill=""/>
</svg>
