<svg width="24" height="25" viewBox="0 0 24 25" fill="" xmlns="http://www.w3.org/2000/svg">
<path d="M2.17087 22.2562L1.65826 20.8466L1.65825 20.8466L2.17087 22.2562ZM4.12503 21.5456L4.63764 20.136L4.12503 19.9495L3.61242 20.136L4.12503 21.5456ZM6.75006 22.5002L6.23745 23.9099L6.75006 24.0963L7.26268 23.9099L6.75006 22.5002ZM9.37509 21.5456L9.88771 20.136L9.37509 19.9495L8.86248 20.136L9.37509 21.5456ZM12.0001 22.5002L11.4875 23.9099L12.0001 24.0963L12.5127 23.9099L12.0001 22.5002ZM14.6252 21.5456L15.1378 20.136L14.6252 19.9495L14.1125 20.136L14.6252 21.5456ZM17.2502 22.5002L16.7376 23.9099L17.2502 24.0963L17.7628 23.9099L17.2502 22.5002ZM19.8752 21.5456L20.3878 20.136L19.8752 19.9495L19.3626 20.136L19.8752 21.5456ZM21.8294 22.2562L22.342 20.8466L22.342 20.8466L21.8294 22.2562ZM3 3.5C3 3.22386 3.22386 3 3.5 3V0C1.567 0 0 1.567 0 3.5H3ZM3 15.8183V3.5H0V15.8183H3ZM3 15.8183V15.8183H0V15.8183H3ZM3 21.7863V15.8183H0V21.7863H3ZM1.65825 20.8466C2.31044 20.6094 3 21.0924 3 21.7863H0C0 23.1743 1.37912 24.1403 2.68349 23.6659L1.65825 20.8466ZM3.61242 20.136L1.65826 20.8466L2.68349 23.6659L4.63764 22.9553L3.61242 20.136ZM7.26268 21.0905L4.63764 20.136L3.61242 22.9553L6.23745 23.9099L7.26268 21.0905ZM8.86248 20.136L6.23745 21.0905L7.26268 23.9099L9.88771 22.9553L8.86248 20.136ZM12.5127 21.0905L9.88771 20.136L8.86248 22.9553L11.4875 23.9099L12.5127 21.0905ZM14.1125 20.136L11.4875 21.0905L12.5127 23.9099L15.1378 22.9553L14.1125 20.136ZM17.7628 21.0905L15.1378 20.136L14.1125 22.9553L16.7376 23.9099L17.7628 21.0905ZM19.3626 20.136L16.7376 21.0905L17.7628 23.9099L20.3878 22.9553L19.3626 20.136ZM22.342 20.8466L20.3878 20.136L19.3626 22.9553L21.3168 23.6659L22.342 20.8466ZM21.0002 21.7863C21.0002 21.0924 21.6898 20.6094 22.342 20.8466L21.3168 23.6659C22.6211 24.1403 24.0002 23.1743 24.0002 21.7863H21.0002ZM21.0002 15.8183V21.7863H24.0002V15.8183H21.0002ZM21.0002 15.8183V15.8183H24.0002V15.8183H21.0002ZM21.0002 3.5V15.8183H24.0002V3.5H21.0002ZM20.5002 3C20.7764 3 21.0002 3.22386 21.0002 3.5H24.0002C24.0002 1.567 22.4332 0 20.5002 0V3ZM3.5 3H20.5002V0H3.5V3Z" fill=""/>
<path d="M5.25209 6.81226H18.5521" stroke="" stroke-width=""/>
<path d="M5.2522 10.5623H13.2522" stroke="" stroke-width=""/>
<path d="M5.25275 14.3123H15.2527" stroke="" stroke-width=""/>
</svg>
