<svg width="19" height="23" viewBox="0 0 19 23" fill="none" xmlns="http://www.w3.org/2000/svg">
<path fill-rule="evenodd" clip-rule="evenodd" d="M11.2089 5.83505V0.794189H2.58545C1.48088 0.794189 0.585449 1.68962 0.585449 2.79419V21C0.585449 22.1045 1.48088 23 2.58545 23H17C18.1046 23 19 22.1045 19 21V8.58504H13.9589C12.4401 8.58504 11.2089 7.35383 11.2089 5.83505ZM12.7089 5.83505V1.54394L18.25 7.08504H13.9589C13.2685 7.08504 12.7089 6.5254 12.7089 5.83505ZM3.75192 2.96061C3.19963 2.96061 2.75192 3.40832 2.75192 3.96061V7.37665C2.75192 7.92894 3.19963 8.37665 3.75192 8.37665H7.16796C7.72025 8.37665 8.16796 7.92894 8.16796 7.37665V3.96061C8.16796 3.40832 7.72025 2.96061 7.16796 2.96061H3.75192ZM3.50192 11.2095C3.0877 11.2095 2.75192 11.5453 2.75192 11.9595C2.75192 12.3737 3.0877 12.7095 3.50192 12.7095H16.0836C16.4978 12.7095 16.8336 12.3737 16.8336 11.9595C16.8336 11.5453 16.4978 11.2095 16.0836 11.2095H3.50192ZM2.75192 15.2091C2.75192 14.7949 3.0877 14.4591 3.50192 14.4591H10.6676C11.0818 14.4591 11.4176 14.7949 11.4176 15.2091C11.4176 15.6233 11.0818 15.9591 10.6676 15.9591H3.50192C3.0877 15.9591 2.75192 15.6233 2.75192 15.2091ZM3.50192 17.7087C3.0877 17.7087 2.75192 18.0445 2.75192 18.4587C2.75192 18.873 3.0877 19.2087 3.50192 19.2087H12.834C13.2482 19.2087 13.584 18.873 13.584 18.4587C13.584 18.0445 13.2482 17.7087 12.834 17.7087H3.50192Z" fill="#7E93FF"/>
</svg>
