<svg width="24" height="24" viewBox="0 0 24 24" fill="" xmlns="http://www.w3.org/2000/svg">
<path d="M10.796 20.3264C10.7653 20.2448 10.7547 20.1754 10.7651 20.1193C10.7755 20.0635 10.7398 20.0173 10.6581 19.9817C10.5763 19.9461 10.5355 19.9178 10.5355 19.8977C10.5355 19.8773 10.4769 19.8619 10.3595 19.8519C10.2421 19.8416 10.1835 19.8364 10.1835 19.8364H9.98457H9.81624H5.40806C4.73461 19.8364 4.15803 19.5968 3.67838 19.1169C3.19883 18.6373 2.95909 18.0609 2.95909 17.3875V6.61195C2.95909 5.9385 3.19878 5.36213 3.67838 4.88253C4.15803 4.40288 4.73461 4.16297 5.40806 4.16297H10.306C10.4387 4.16297 10.543 4.13006 10.6197 4.06358C10.6961 3.99726 10.747 3.89771 10.7726 3.76508C10.7982 3.63244 10.8136 3.51268 10.8187 3.40551C10.8237 3.29845 10.8213 3.16314 10.811 2.99989C10.8008 2.8367 10.7958 2.73468 10.7958 2.69367C10.7958 2.56104 10.7472 2.44647 10.6504 2.34933C10.5534 2.25262 10.4387 2.2041 10.306 2.2041H5.40806C4.1939 2.2041 3.15557 2.63524 2.29324 3.49745C1.43114 4.35967 1 5.39784 1 6.61211V17.3875C1 18.6017 1.43114 19.6401 2.29324 20.502C3.15557 21.3646 4.1939 21.7958 5.40806 21.7958H10.3062C10.4389 21.7958 10.5432 21.7624 10.6199 21.6964C10.6963 21.6299 10.7472 21.5305 10.7729 21.3977C10.7984 21.2652 10.8138 21.1449 10.8189 21.0381C10.824 20.931 10.8215 20.7959 10.8112 20.6327C10.801 20.4693 10.796 20.3673 10.796 20.3264Z" fill=""/>
<path d="M22.7432 11.4079L15.392 4.24997C15.2209 4.08351 15.0182 4 14.7839 4C14.5497 4 14.3469 4.08351 14.1757 4.24997C14.0045 4.41666 13.9189 4.61422 13.9189 4.84216V8.63155H7.86494C7.63055 8.63155 7.42792 8.71506 7.25673 8.88152C7.08553 9.04821 7 9.24563 7 9.47371V14.5263C7 14.7543 7.08553 14.9517 7.25673 15.1183C7.42811 15.2847 7.63069 15.3685 7.86494 15.3685H13.919V19.1578C13.919 19.3857 14.0045 19.5833 14.1757 19.7499C14.3469 19.9165 14.5497 20 14.784 20C15.0182 20 15.2209 19.9165 15.392 19.7499L22.7432 12.5923C22.9144 12.4255 23 12.2283 23 12.0002C23 11.7722 22.9144 11.5745 22.7432 11.4079Z" fill=""/>
</svg>
