<svg width="24" height="24" viewBox="0 0 24 24" fill="" xmlns="http://www.w3.org/2000/svg">
<path fill-rule="evenodd" clip-rule="evenodd" d="M21.3808 21.7482C17.7036 24.7506 6.22141 24.7506 2.61915 21.7482C-1.05815 18.7459 -0.682918 5.91086 2.61915 2.53323C5.92122 -0.844409 18.0788 -0.844409 21.3808 2.53323C24.6829 5.91086 25.0581 18.7459 21.3808 21.7482ZM10.5 11C10.5 10.4477 10.9477 10 11.5 10H12.5C13.0523 10 13.5 10.4477 13.5 11V18C13.5 18.5523 13.0523 19 12.5 19H11.5C10.9477 19 10.5 18.5523 10.5 18V11ZM11.5 4.99999C10.9477 4.99999 10.5 5.44771 10.5 5.99999V6.99999C10.5 7.55228 10.9477 7.99999 11.5 7.99999H12.5C13.0523 7.99999 13.5 7.55228 13.5 6.99999V5.99999C13.5 5.44771 13.0523 4.99999 12.5 4.99999H11.5Z" fill=""/>
</svg>
