<svg width="24" height="24" viewBox="0 0 24 24" fill="" xmlns="http://www.w3.org/2000/svg">
<path d="M3.79688 22.4244C3.79688 23.2932 4.53278 24 5.4375 24H18.5625C19.4672 24 20.2031 23.2932 20.2031 22.4244V18.3281H3.79688V22.4244ZM12 19.7812C12.3884 19.7812 12.7031 20.096 12.7031 20.4844C12.7031 20.8727 12.3884 21.1875 12 21.1875C11.6116 21.1875 11.2969 20.8727 11.2969 20.4844C11.2969 20.096 11.6116 19.7812 12 19.7812Z" fill=""/>
<path fill-rule="evenodd" clip-rule="evenodd" d="M18.5625 0H5.4375C4.53278 0 3.79688 0.735901 3.79688 1.64062V16.9219H20.2031V1.64062C20.2031 0.735901 19.4672 0 18.5625 0ZM12 2.32836C11.3087 2.32836 10.7463 2.89103 10.7463 3.58265C10.7463 4.27365 11.3087 4.83582 12 4.83582C12.6913 4.83582 13.2537 4.27365 13.2537 3.58265C13.2537 2.89103 12.6913 2.32836 12 2.32836ZM10.7463 7.17313C10.7463 6.47579 11.3076 5.91045 12 5.91045C12.6924 5.91045 13.2537 6.47579 13.2537 7.17313V13.0657C13.2537 13.763 12.6924 14.3284 12 14.3284C11.3076 14.3284 10.7463 13.763 10.7463 13.0657V7.17313Z" fill=""/>
</svg>
