<svg width="18" height="24" viewBox="0 0 18 24" fill="" xmlns="http://www.w3.org/2000/svg">
<path d="M16.5764 0H1.42348C0.64513 0 0.0117188 0.633412 0.0117188 1.41176V22.5882C0.0117188 23.3666 0.64513 24 1.42348 24H16.5764C17.3548 24 17.9882 23.3666 17.9882 22.5882V1.41176C17.9882 0.633412 17.3548 0 16.5764 0ZM5.98819 19.8588H3.72937C3.33953 19.8588 3.02348 19.5428 3.02348 19.1529C3.02348 18.7631 3.33953 18.4471 3.72937 18.4471H5.98819C6.37802 18.4471 6.69407 18.7631 6.69407 19.1529C6.69407 19.5428 6.37802 19.8588 5.98819 19.8588ZM5.98819 16.8471H3.72937C3.33953 16.8471 3.02348 16.531 3.02348 16.1412C3.02348 15.7513 3.33953 15.4353 3.72937 15.4353H5.98819C6.37802 15.4353 6.69407 15.7513 6.69407 16.1412C6.69407 16.531 6.37802 16.8471 5.98819 16.8471ZM5.98819 13.8353H3.72937C3.33953 13.8353 3.02348 13.5192 3.02348 13.1294C3.02348 12.7396 3.33953 12.4235 3.72937 12.4235H5.98819C6.37802 12.4235 6.69407 12.7396 6.69407 13.1294C6.69407 13.5192 6.37802 13.8353 5.98819 13.8353ZM6.15426 10.9176H3.56325C3.26513 10.9176 3.02344 10.6016 3.02344 10.2118C3.02344 9.82193 3.26513 9.50588 3.56325 9.50588H6.15426C6.45238 9.50588 6.69407 9.82193 6.69407 10.2118C6.69407 10.6016 6.45238 10.9176 6.15426 10.9176ZM14.9764 19.5294C14.9764 20.0323 14.4659 20.3719 14.0034 20.1828L11.6352 19.2146L9.26711 20.1828C8.80315 20.3726 8.29407 20.0305 8.29407 19.5294C8.29407 12.7188 8.28824 13.1286 8.3065 13.0304C8.14395 11.0636 9.70254 9.41177 11.6352 9.41177C13.4776 9.41177 14.9764 10.9106 14.9764 12.7529V19.5294ZM14.2705 7.81176H3.72937C3.33972 7.81176 3.02348 7.49553 3.02348 7.10588C3.02348 6.71624 3.33972 6.4 3.72937 6.4H14.2705C14.6602 6.4 14.9764 6.71624 14.9764 7.10588C14.9764 7.49553 14.6602 7.81176 14.2705 7.81176ZM14.2705 4.8H3.72937C3.33972 4.8 3.02348 4.48376 3.02348 4.09412C3.02348 3.70447 3.33972 3.38824 3.72937 3.38824H14.2705C14.6602 3.38824 14.9764 3.70447 14.9764 4.09412C14.9764 4.48376 14.6602 4.8 14.2705 4.8Z" fill=""/>
<path d="M11.6355 14.6823C12.7011 14.6823 13.5649 13.8185 13.5649 12.7529C13.5649 11.6873 12.7011 10.8235 11.6355 10.8235C10.5699 10.8235 9.70605 11.6873 9.70605 12.7529C9.70605 13.8185 10.5699 14.6823 11.6355 14.6823Z" fill=""/>
<path d="M9.70605 15.478V18.4781L11.3683 17.7985C11.5396 17.7285 11.7314 17.7285 11.9026 17.7985L13.5649 18.4781V15.478C12.4071 16.3001 10.8627 16.2993 9.70605 15.478Z" fill=""/>
</svg>
