<svg width="22" height="16" viewBox="0 0 22 16" fill="" xmlns="http://www.w3.org/2000/svg">
<path d="M19.3638 15.9999C19.8215 15.9999 20.2181 15.8487 20.5553 15.5503L14.7861 9.78085C14.6476 9.87997 14.5135 9.97635 14.3867 10.068C13.955 10.3861 13.6046 10.6343 13.3355 10.8122C13.0665 10.9905 12.7085 11.1722 12.2617 11.3577C11.8146 11.5434 11.398 11.636 11.0116 11.636H11.0003H10.989C10.6025 11.636 10.186 11.5435 9.7389 11.3577C9.29182 11.1722 8.93387 10.9905 8.66509 10.8122C8.39606 10.6343 8.04583 10.3861 7.61387 10.068C7.49349 9.97975 7.35999 9.88293 7.21566 9.7793L1.44531 15.5503C1.78245 15.8487 2.17933 15.9999 2.63702 15.9999H19.3638Z" fill=""/>
<path d="M1.96619 6.14792C1.53448 5.86011 1.15165 5.53048 0.818359 5.15918V13.9369L5.90334 8.85196C4.88606 8.14175 3.57534 7.24144 1.96619 6.14792Z" fill=""/>
<path d="M20.0453 6.14792C18.4975 7.19552 17.182 8.09739 16.0986 8.85399L21.1816 13.9372V5.15918C20.8557 5.52301 20.477 5.85242 20.0453 6.14792Z" fill=""/>
<path d="M19.3631 0H2.63639C2.05285 0 1.60421 0.197053 1.28992 0.590754C0.975374 0.984639 0.818359 1.47724 0.818359 2.06799C0.818359 2.54517 1.02673 3.06221 1.44327 3.61924C1.85982 4.17606 2.30306 4.61342 2.77278 4.93155C3.03028 5.11349 3.80681 5.65333 5.10237 6.55091C5.80175 7.03555 6.40995 7.45798 6.9326 7.82251C7.3781 8.13292 7.7623 8.40173 8.07951 8.62481C8.11592 8.65036 8.17319 8.69132 8.2492 8.74567C8.33109 8.80449 8.43472 8.87913 8.56257 8.97145C8.80875 9.1495 9.01328 9.29343 9.17617 9.40338C9.33884 9.51336 9.53593 9.63622 9.76715 9.77264C9.99817 9.90888 10.2161 10.0113 10.4206 10.0795C10.6252 10.1476 10.8145 10.1817 10.9887 10.1817H11H11.0114C11.1855 10.1817 11.3749 10.1476 11.5795 10.0795C11.784 10.0113 12.0017 9.9091 12.2329 9.77264C12.4639 9.63622 12.6608 9.5131 12.824 9.40338C12.9868 9.29343 13.1914 9.14954 13.4376 8.97145C13.5652 8.87913 13.6688 8.80445 13.7507 8.74585C13.8267 8.69129 13.884 8.65058 13.9206 8.62481C14.1677 8.45286 14.5528 8.18516 15.0705 7.82565C16.0126 7.17109 17.4001 6.20767 19.2387 4.93155C19.7917 4.54532 20.2537 4.07923 20.6249 3.53395C20.9956 2.98867 21.1814 2.4167 21.1814 1.81822C21.1814 1.31819 21.0012 0.890327 20.6417 0.533967C20.2817 0.178051 19.8555 0 19.3631 0Z" fill=""/>
</svg>
