<svg width="375" height="420" viewBox="0 0 375 420" fill="none" xmlns="http://www.w3.org/2000/svg">
<mask id="mask0" style="mask-type:alpha" maskUnits="userSpaceOnUse" x="0" y="0" width="375" height="420">
<rect width="375" height="420" fill="#C4C4C4"/>
</mask>
<g mask="url(#mask0)">
<path d="M489.003 246.087C488.852 246.878 488.683 247.669 488.498 248.461C488.313 249.218 488.145 249.975 487.96 250.733C487.943 250.783 487.943 250.834 487.926 250.884C487.741 251.541 487.572 252.214 487.404 252.87C487.387 252.904 487.387 252.954 487.371 252.988C487.337 253.173 487.286 253.341 487.219 253.527V253.543C486.058 257.886 484.644 262.262 482.995 266.621C482.86 266.991 482.708 267.378 482.557 267.748C482.557 267.765 482.54 267.782 482.54 267.799C472.408 293.836 453.423 319.873 422.236 343.486C420.267 344.984 418.247 346.465 416.177 347.946C400.238 359.273 381.489 370.045 359.391 379.924C356.832 381.069 354.207 382.213 351.547 383.341C348.585 384.603 345.556 385.832 342.493 387.061C339.715 388.155 336.854 389.266 333.959 390.343C333.741 390.41 333.555 390.511 333.337 390.578C306.711 400.508 275.995 409.294 240.583 416.497C209.632 422.809 180.481 426.663 153.148 428.38C115.161 430.787 80.6755 429.104 49.6735 424.206C22.1218 419.864 -2.66974 412.98 -24.6842 404.211C-158.05 351.127 -190.062 228.584 -119.659 176.577C-25.1386 106.747 30.8064 203.742 168.329 126.455C279.512 63.9297 358.583 51.4413 429.238 97.8097C432.334 99.863 435.431 102.017 438.511 104.289C439.605 105.097 440.699 105.905 441.793 106.747C459.348 120.228 476.683 144.818 485.671 174.776C492.184 196.471 494.322 220.976 489.003 246.087Z" fill="#CA9D9D" fill-opacity="0.4"/>
<path d="M487.404 252.87C487.404 252.904 487.387 252.954 487.387 252.988C487.37 253.207 487.336 253.409 487.303 253.627C487.269 253.594 487.252 253.577 487.235 253.543L487.218 253.526V253.543C486.057 257.886 484.643 262.262 482.994 266.621C482.859 266.991 482.708 267.378 482.556 267.748C482.556 267.765 482.54 267.782 482.54 267.799C480.671 270.509 478.416 272.242 475.858 272.73C472.458 273.555 468.957 272.764 465.322 270.744H465.305C452.345 263.49 437.551 240.432 418.92 217.189C415.049 212.039 411.127 207.074 407.29 202.311C407.273 202.277 407.256 202.244 407.223 202.21C388.456 178.815 372.349 160.386 378.038 149.126C382.145 139.937 405.001 139.583 429.473 153.014C429.557 153.065 429.843 153.199 430.314 153.452C433.865 155.454 437.45 157.743 441.018 160.319C448.845 166.024 456.57 173.194 463.622 181.996C483.852 207.175 489.608 234.777 487.404 252.87Z" fill="#F2C29D"/>
<path d="M-40.7752 297.909C-30.4075 351.262 -32.4104 404.278 -14.2838 403.975C3.77547 404.851 33.3637 341.13 17.24 275.827C1.52018 210.474 -40.9771 184.016 -52.2705 195.343C-65.0281 206.788 -50.1666 244.169 -40.7752 297.909Z" fill="#F2C29D"/>
<path d="M-14.6927 338.099C-0.39158 324.716 -8.15807 293.179 -32.0396 267.658C-55.9212 242.137 -86.8743 232.297 -101.175 245.68C-115.476 259.062 -107.71 290.6 -83.8285 316.12C-59.9469 341.641 -28.9938 351.481 -14.6927 338.099Z" fill="#F2C29D"/>
<path d="M-6.25569 342.611C21.1951 379.52 0.0389557 399.885 -14.7551 402.629C-20.04 403.942 -20.5617 406.214 -26.0148 403.992C-26.0148 403.992 -55.7714 390.932 -80.3609 374.37C-112.339 352.81 -149.72 333.893 -128.985 314.352C-119.307 305.331 -95.0035 300.955 -70.1784 306.122C-45.2691 310.818 -19.8548 325.09 -6.25569 342.611Z" fill="#F2C29D"/>
<path d="M19.7979 279.227C2.42866 313.006 4.17905 352.255 10.9113 348.384C17.3069 345.135 26.4796 311.104 39.6916 289.813C52.3483 268.034 62.1269 257.397 59.6864 248.528C57.8855 240.196 37.2849 245.212 19.7979 279.227Z" fill="#F2C29D"/>
<path d="M20.9434 313.242C7.36112 329.164 6.57009 351.548 11.3163 353.938C15.9111 356.698 21.9869 340.743 32.4724 326.639C42.7728 312.282 52.6691 304.423 50.8851 299.979C49.5387 295.788 34.3743 297.219 20.9434 313.242Z" fill="#F2C29D"/>
<path d="M11.5513 330.207C11.5008 330.207 11.4671 330.207 11.4166 330.19C11.1978 330.123 11.08 329.887 11.1473 329.651C20.2527 301.426 43.5968 297.387 43.8324 297.353C44.0512 297.32 44.27 297.471 44.3205 297.707C44.3541 297.942 44.2026 298.144 43.967 298.195C43.7314 298.228 20.8922 302.217 11.9384 329.921C11.8879 330.089 11.7364 330.207 11.5513 330.207Z" fill="#340000"/>
<path d="M4.41541 363.716C4.28077 363.716 4.14613 363.649 4.06197 363.531C2.83334 361.663 1.72252 359.492 0.426567 356.984C-5.22852 345.994 -13.7953 329.399 -45.7398 314.554C-83.0196 297.236 -112.557 306.408 -115.789 307.519L-115.957 307.132L-116.075 306.728L-115.957 307.132L-116.092 306.728C-112.776 305.6 -82.9523 296.344 -45.3864 313.797C-13.1726 328.759 -4.53848 345.523 1.1671 356.614C2.44623 359.105 3.55704 361.259 4.76885 363.094C4.9035 363.296 4.83617 363.548 4.65104 363.683C4.58372 363.7 4.49957 363.716 4.41541 363.716Z" fill="#340000"/>
<path d="M9.46401 307.906C9.43035 307.906 9.3967 307.906 9.36303 307.889C9.14424 307.839 8.99276 307.603 9.06008 307.384C9.16107 306.93 20.1178 262.245 42.452 249.588C42.654 249.47 42.9064 249.538 43.0243 249.739C43.1421 249.941 43.0748 250.194 42.8728 250.312C20.8584 262.783 10.0026 307.115 9.88478 307.569C9.83429 307.771 9.66598 307.906 9.46401 307.906Z" fill="#340000"/>
<path d="M211.113 95.1838C207.326 117.686 201.418 150.725 195.494 184.066C194.686 188.644 193.76 193.121 192.734 197.447C192.01 200.544 191.202 203.573 190.327 206.502C186.422 211.837 178.428 216.415 168.666 218.3C168.11 218.418 167.572 218.502 167.016 218.586C157.776 215.304 148.351 212.022 138.69 208.757C138.64 208.555 138.589 208.336 138.556 208.134C138.388 207.293 138.354 206.451 138.421 205.593C138.404 205.576 138.421 205.559 138.421 205.559C139.01 203.893 139.599 202.227 140.138 200.544C147.072 179.993 152.963 158.299 158.029 138.102C163.583 116.02 173.681 108.934 191.236 102.068C202.243 97.7758 211.113 95.1838 211.113 95.1838Z" fill="#7D7FBC"/>
<path d="M190.327 206.502C186.422 211.837 178.428 216.415 168.666 218.3C168.11 218.418 167.572 218.502 167.016 218.586C153.064 220.808 140.777 216.566 138.69 208.757C138.64 208.555 138.589 208.336 138.556 208.134C138.388 207.293 138.354 206.451 138.421 205.61C138.404 205.593 138.421 205.576 138.421 205.576C138.573 203.876 139.162 202.193 140.155 200.561C142.562 196.555 147.274 192.869 153.4 190.294C156.228 189.082 159.358 188.123 162.691 187.466C163.465 187.315 164.256 187.18 165.081 187.062C170.871 186.255 176.341 186.541 180.885 187.719C181.642 187.921 182.366 188.14 183.073 188.392C188.257 190.227 191.875 193.374 192.734 197.447C192.75 197.514 192.767 197.565 192.784 197.632C193.356 200.594 192.414 203.657 190.327 206.502Z" fill="#21207D"/>
<path d="M178.849 311.609H294.441L286.077 253.51H187.213L178.849 311.609Z" fill="#21207D"/>
<path d="M181.222 145.087C185.749 187.719 183.83 220.993 184.554 269.112C184.554 269.112 197.042 279.513 244.471 275.356C284.982 271.805 289.931 261.403 289.931 261.403C291.227 227.624 292.741 176.712 297.117 135.409C298.548 121.911 297.05 109.658 285.824 103.986C280.573 101.327 275.17 99.1392 269.65 97.3888C248.258 90.5556 225.436 90.5051 204.01 97.2037C199.012 98.7521 194.097 100.688 189.284 102.977C176.711 109.002 179.656 130.141 181.222 145.087Z" fill="#7D7FBC"/>
<path d="M252.381 93.3831C261.84 113.378 272.662 148.604 286.766 178.495C293.869 193.542 301.796 207.242 310.8 216.953C323.524 207.73 336.77 198.372 350.571 188.93C335.626 164.678 321.892 145.642 310.8 125.378C299.877 105.4 286.85 101.613 269.633 97.0353C259.198 94.2582 252.381 93.3831 252.381 93.3831Z" fill="#7D7FBC"/>
<path d="M230.704 80.4236L248.022 83.0324L249.352 21.365L227.304 21.6174C219.848 21.7016 213.924 27.9289 214.226 35.3849L215.354 63.2901C215.724 71.941 222.154 79.1277 230.704 80.4236Z" fill="#7D7FBC"/>
<path d="M247.248 30.2516C246.642 33.1969 255.832 42.235 268.253 42.5043C280.775 42.8241 287.12 33.7355 284.646 29.4101C282.306 24.7816 275.187 26.8013 265.678 27.929C256.084 29.2586 247.585 27.1548 247.248 30.2516Z" fill="#7D7FBC"/>
<path d="M268.825 36.8829C265.273 36.8829 261.167 36.3443 256.572 34.8968C256.353 34.8295 256.219 34.5939 256.303 34.3751C256.37 34.1563 256.606 34.0385 256.824 34.1058C273.722 39.4411 284.343 32.103 284.78 31.2951C284.797 31.0595 284.932 30.9417 285.218 30.9417C285.453 30.9585 285.622 31.1941 285.605 31.4297C285.605 31.5644 285.571 31.9178 284.326 32.793C283.501 33.3316 277.997 36.8829 268.825 36.8829Z" fill="#21207D"/>
<path d="M204.01 97.2039C206.097 110.113 220.201 125.059 237.351 125.378C256.016 125.732 268.151 110.029 269.851 97.086C244.42 89.8825 225.435 90.5053 204.01 97.2039Z" fill="#F79E7E"/>
<path d="M252.365 56.9448H224.392V104.727H252.365V56.9448Z" fill="#F79E7E"/>
<path d="M237.823 84.581C237.823 84.581 246.423 90.0677 252.381 91.5657V83.6553L237.823 84.581Z" fill="#21207D"/>
<path d="M242.586 85.7083H252.583C258.154 85.7083 262.665 81.1977 262.665 75.6268V31.3455H224.392V67.5145C224.392 77.5623 232.538 85.7083 242.586 85.7083Z" fill="#F79E7E"/>
<path d="M224.257 35.1998H217.66L237.823 21.4828C246.575 21.4323 251.859 15.2723 253.745 12.125V12.1082C254.031 11.4855 254.35 10.8964 254.687 10.3241C254.687 10.3073 254.704 10.2736 254.704 10.2736C258.625 3.64238 265.879 0.461396 271.703 3.12063C278.031 6.0155 280.27 14.7169 276.685 22.5768C274.429 27.5419 270.373 30.9585 266.115 32.0861L265.896 32.8267C266.233 33.3484 266.435 33.9038 266.435 34.4761C266.435 38.3808 257.818 41.5449 247.197 41.5449C238.681 41.5449 231.461 39.5084 228.936 36.6809C228.566 38.9867 228.381 41.7469 228.717 44.7764C229.492 53.2927 231.225 59.8903 226.95 60.513C222.827 61.3041 216.465 53.8649 219.494 44.2042C220.622 40.5856 222.423 37.5561 224.257 35.1998Z" fill="#7D7FBC"/>
<path d="M218.754 63.4918C221.06 66.3698 224.493 67.4638 226.412 65.9322C228.33 64.4006 228.027 60.8157 225.722 57.9208C223.416 55.0428 219.982 53.9488 218.064 55.4804C216.145 57.012 216.448 60.6137 218.754 63.4918Z" fill="#F79E7E"/>
<path d="M347.861 201.368C347.626 201.688 347.39 202.008 347.138 202.328C344.647 205.526 341.247 208.824 337.174 211.837C331.435 216.095 325.527 218.872 320.73 219.882C320.326 219.966 319.922 220.05 319.535 220.101C315.816 220.69 312.904 220.118 311.49 218.182C309.875 215.994 310.464 212.493 312.753 208.555C315.159 204.347 319.502 199.652 325.106 195.511C329.465 192.28 333.959 189.89 337.965 188.493C337.998 188.476 338.049 188.459 338.083 188.459C343.973 186.389 348.821 186.473 350.79 189.149C352.759 191.809 351.463 196.403 347.861 201.368Z" fill="#21207D"/>
<path d="M145.793 182.872C145.709 182.872 145.624 182.838 145.54 182.787C145.355 182.653 145.305 182.383 145.439 182.198C156.329 167.017 175.162 170.467 175.364 170.501C175.583 170.552 175.734 170.77 175.701 170.989C175.65 171.225 175.448 171.359 175.213 171.326C175.028 171.292 156.699 167.96 146.146 182.686C146.045 182.821 145.911 182.872 145.793 182.872Z" fill="#21207D"/>
<path d="M388.389 275.036C385.646 279.513 379.772 280.876 375.312 278.116C374.033 277.342 372.754 276.484 371.491 275.592C370.784 275.12 370.364 274.784 369.876 274.38L368.411 273.185C367.452 272.394 366.358 271.569 365.533 270.812L362.908 268.405C361.124 266.806 359.474 265.224 357.875 263.591C356.226 261.959 354.627 260.326 353.062 258.677C349.898 255.395 346.952 252.029 343.923 248.679L335.255 238.446C330.492 232.589 325.746 226.766 321.37 220.741C321.151 220.454 320.949 220.168 320.73 219.882C320.124 219.074 319.535 218.25 318.963 217.408C317.179 214.867 314.385 211.181 312.752 208.555C315.159 204.348 319.502 199.652 325.106 195.512C329.465 192.28 333.959 189.89 337.965 188.493C337.998 188.476 338.049 188.459 338.083 188.459C340.809 191.708 343.334 195.04 345.774 198.423C346.447 199.349 347.121 200.308 347.777 201.251C347.811 201.284 347.827 201.335 347.861 201.369C349.662 203.994 351.412 206.62 353.112 209.296L360.215 220.303L374.033 242.351C375.144 244.202 376.271 246.02 377.416 247.771C378.577 249.555 379.654 251.44 380.782 253.123C381.926 254.856 383.037 256.674 384.081 258.189L385.612 260.478C385.999 261.033 386.403 261.622 386.79 262.279L388.507 265.274C390.224 268.203 390.291 271.956 388.389 275.036Z" fill="#F79E7E"/>
<path d="M405.321 287.541C404.53 287.187 400.188 281.061 389.702 281.583C379.217 282.104 373.78 280.472 370.549 275.339C367.317 270.205 386.252 261.403 386.252 261.403L405.321 287.541Z" fill="#F79E7E"/>
<path d="M169.625 226.732C173.917 229.947 199.786 246.205 211.113 258.222C214.647 261.976 219.107 257.112 222.204 253.005C224.207 250.329 224.644 242.503 222.743 240.045C216.7 232.219 203.556 216.752 195.41 209.329C188.879 203.388 182.517 194.687 173.951 192.129C166.192 189.84 154.107 195.31 151.818 203.068C151.818 203.068 153.081 209.01 157.507 214.379C161.075 218.704 167.504 225.1 169.625 226.732Z" fill="#F79E7E"/>
<path d="M219.73 236.275L212.392 258.677L233.093 267.698L239.119 253.846L228.179 244.573C224.981 241.863 222.742 240.028 219.73 236.275Z" fill="#F79E7E"/>
<path d="M228.044 251.894C228.263 251.945 228.633 252.113 228.684 252.163L228.902 252.281L229.172 252.449L229.576 252.736L230.299 253.257L231.696 254.25C232.622 254.89 233.564 255.496 234.524 256.034C236.409 257.112 238.429 258.004 240.246 258.239C240.701 258.307 241.138 258.307 241.542 258.273L241.795 258.239C241.677 258.256 241.61 258.307 241.593 258.323C241.542 258.357 241.626 258.34 241.727 258.222C242.182 257.768 242.72 256.758 243.141 255.782C243.999 253.779 244.673 251.524 245.211 249.336L245.228 249.285C245.447 248.376 246.373 247.838 247.265 248.057C248.123 248.275 248.662 249.117 248.527 249.959C248.123 252.416 247.635 254.755 246.827 257.179C246.389 258.408 245.985 259.602 244.925 260.983C244.656 261.319 244.286 261.706 243.747 262.043C243.478 262.211 243.124 262.363 242.72 262.464C242.451 262.531 242.316 262.548 242.098 262.582C241.323 262.699 240.566 262.733 239.842 262.683C236.947 262.481 234.49 261.471 232.201 260.394C231.057 259.838 229.963 259.232 228.902 258.593L227.337 257.633L226.597 257.162L226.26 256.96L226.159 256.91L226.176 256.926C226.176 256.926 226.462 257.078 226.613 257.095C225.183 256.691 224.341 255.21 224.728 253.779C225.116 252.348 226.613 251.507 228.044 251.894Z" fill="#F79E7E"/>
<path d="M229.206 246.677C229.492 246.778 229.778 246.912 230.047 247.064C230.283 247.215 230.233 247.198 230.35 247.283L230.737 247.585L231.343 248.107L232.471 249.083C233.212 249.723 233.935 250.329 234.693 250.901C236.174 252.046 237.722 253.072 239.22 253.695C239.574 253.813 239.961 253.964 240.28 254.015L240.533 254.082C240.449 254.065 240.348 254.099 240.28 254.099C240.112 254.149 240.078 254.2 240.112 254.2C240.297 254.149 240.886 253.392 241.257 252.651C242.064 251.103 242.687 249.218 243.175 247.417L243.192 247.35C243.445 246.458 244.37 245.919 245.262 246.172C246.104 246.407 246.626 247.232 246.474 248.09C246.104 250.194 245.666 252.18 244.842 254.284C244.37 255.328 244 256.422 242.603 257.617C242.233 257.903 241.745 258.206 241.088 258.323C240.785 258.408 240.415 258.408 240.095 258.391L239.607 258.323C238.934 258.256 238.362 258.071 237.756 257.919C235.501 257.179 233.616 256.068 231.831 254.924C230.939 254.351 230.081 253.745 229.256 253.123L228.045 252.214L227.472 251.793C227.371 251.709 227.321 251.692 227.254 251.658C227.254 251.658 227.119 251.574 227.254 251.658C227.405 251.759 227.59 251.827 227.758 251.86C226.328 251.457 225.486 249.975 225.873 248.545C226.277 247.114 227.758 246.273 229.206 246.677Z" fill="#F79E7E"/>
<path d="M217.845 255.227C218.3 255.328 218.771 255.462 219.057 255.563C219.41 255.681 219.713 255.799 219.999 255.917C220.622 256.152 221.144 256.422 221.716 256.691C222.81 257.229 223.887 257.802 224.914 258.408C227.001 259.586 228.97 260.898 230.939 262.211C232.875 263.558 234.794 264.938 236.628 266.419C238.479 267.883 240.28 269.415 241.947 271.182L241.963 271.199C242.62 271.889 242.603 272.983 241.913 273.656C241.442 274.111 240.768 274.245 240.179 274.06C237.84 273.303 235.635 272.259 233.531 271.098C231.427 269.937 229.408 268.657 227.439 267.294C225.486 265.914 223.584 264.483 221.783 262.952C220.875 262.194 219.983 261.403 219.107 260.629L217.845 259.468L217.256 258.912C217.037 258.694 216.953 258.61 216.852 258.475L216.28 257.667C215.792 256.977 215.943 256.018 216.633 255.513C216.987 255.21 217.424 255.142 217.845 255.227Z" fill="#F79E7E"/>
<path d="M224.998 255.866L239.927 262.245C241.391 262.985 243.31 262.43 244.185 260.949L248.09 254.015C248.544 253.207 249.571 252.921 250.379 253.375C251.153 253.813 251.439 254.772 251.069 255.563L247.652 262.767C246.861 264.399 245.414 265.729 243.697 266.385C241.997 267.075 239.927 267.025 238.261 266.368L223.568 261.05L223.029 260.848C221.632 260.343 220.908 258.811 221.413 257.414C221.918 256.018 223.45 255.294 224.847 255.799C224.897 255.832 224.948 255.849 224.998 255.866Z" fill="#F79E7E"/>
<path d="M261.621 270.492L260.864 271.098L233.733 239.843C232.791 238.749 231.074 238.143 229.845 238.413C229.812 238.429 229.778 238.429 229.727 238.446L214.142 242.974L214.008 242.687L213.065 242.048L212.779 244.135C212.762 244.32 212.796 244.522 212.914 244.758L240.785 277.072C241.728 278.166 243.428 278.772 244.656 278.503C244.69 278.486 244.723 278.486 244.774 278.469C245.599 278.234 246.423 277.998 247.248 277.746C249.049 277.224 250.867 276.702 252.668 276.18C254.468 275.659 256.269 275.137 258.087 274.615C258.44 274.514 258.777 274.413 259.13 274.312C259.669 274.161 260.241 274.06 260.729 273.824C261.133 273.622 261.52 273.286 261.605 272.831C261.621 272.747 261.621 270.492 261.621 270.492Z" fill="#241E2C"/>
<path d="M222.776 239.422C223.23 239.322 223.853 239.557 224.207 239.961C224.56 240.382 224.476 240.819 224.038 240.954C224.022 240.954 224.022 240.954 224.005 240.954C223.55 241.055 222.894 240.819 222.54 240.415C222.17 239.995 222.254 239.557 222.709 239.422C222.742 239.439 222.759 239.439 222.776 239.422Z" fill="#162847"/>
<path d="M244.807 276.416C244.841 276.4 244.875 276.4 244.925 276.383L260.662 271.822C261.89 271.468 262.092 270.273 261.133 269.146L233.884 237.756C232.942 236.662 231.225 236.057 229.996 236.326C229.963 236.343 229.929 236.343 229.878 236.36L214.142 240.921C212.913 241.274 212.728 242.486 213.687 243.58L240.936 274.969C241.896 276.063 243.579 276.686 244.807 276.416Z" fill="#6C949F"/>
<path d="M242.737 275.205L260.359 270.122L233.649 239.339L216.044 244.438L242.737 275.205Z" fill="white"/>
<path d="M224.022 240.971C224.039 240.971 224.039 240.971 224.055 240.971C224.51 240.837 224.577 240.382 224.224 239.978C223.87 239.574 223.231 239.339 222.793 239.44C222.776 239.44 222.759 239.456 222.743 239.456C222.271 239.591 222.187 240.029 222.574 240.449C222.911 240.853 223.55 241.089 224.022 240.971Z" fill="white"/>
<path d="M229.862 254.89L229.391 254.284L230.266 253.981L230.737 254.587L229.862 254.89Z" fill="#241E2C"/>
<path d="M235.45 261.925L234.928 261.252L235.837 260.949L236.376 261.622L235.45 261.925Z" fill="#241E2C"/>
<path d="M245.027 258.711L244.455 258.054L245.363 257.751L245.936 258.408L245.027 258.711Z" fill="#241E2C"/>
<path d="M241.543 254.065L242.081 254.671L241.038 255.025L240.516 254.419L241.543 254.065ZM245.649 256.977L247.147 258.66L244.74 259.468L243.276 257.785L245.649 256.977ZM239.994 254.604L240.516 255.21L239.54 255.547L239.018 254.941L239.994 254.604ZM242.569 255.883L241.963 256.085L241.357 255.395L242.401 255.042L244.067 256.944L242.266 257.549L242.805 258.172L240.415 258.98L239.405 257.785L243.125 256.523L242.569 255.883ZM237.284 252.197L238.345 253.426L239.355 253.089L238.294 251.861L239.321 251.507L241.105 253.544L236.51 255.109L235.282 253.645L236.695 253.157L236.19 252.568L237.284 252.197ZM238.867 257.97L239.876 259.165L239.573 259.266L238.58 258.071L238.867 257.97ZM235.551 255.799L235.955 256.287L237.133 255.883L236.931 255.648L238.176 255.227L238.698 255.833L235.484 256.927L234.777 256.068L235.551 255.799ZM234.103 254.049L235.315 255.513L233.026 256.287L232.168 255.227L232.74 255.042L232.404 254.638L234.103 254.049ZM234.053 256.321L234.743 257.179L233.969 257.448L233.279 256.59L234.053 256.321ZM231.192 255.563L232.235 256.859L231.613 257.061L230.586 255.749L231.192 255.563ZM230.586 253.274L231.831 254.823L229.576 255.597L228.347 254.049L230.586 253.274ZM236.14 260.175L237.503 261.875L235.13 262.666L233.784 260.966L236.14 260.175ZM234.878 263.339L238.496 262.127L236.392 259.552L235.803 259.754L235.517 259.401L236.679 259.014L236.493 258.778L235.332 259.165L234.995 258.744L235.484 258.576L235.113 258.122L234.625 258.29L234.238 257.819L240.819 255.58L241.425 256.27L240.028 256.742L239.557 256.186L239.304 256.27L239.775 256.826L236.359 257.987L236.88 258.627L238.075 258.223L239.068 259.418L237.116 260.074L237.52 260.562L239.674 259.838L240.516 260.848L241.139 260.646L240.449 259.805L240.987 259.62L240.853 259.451L243.259 258.643L244.522 260.108L248.191 258.879L245.919 256.338L245.296 256.54L241.66 252.45L242.603 252.13L242.098 251.575L241.155 251.894L239.759 250.312L238.631 250.699L239.052 251.171L237.217 251.793L236.662 251.137L236.039 251.356L236.594 252.012L235.938 252.231L234.659 252.669L234.541 252.702L233.986 252.046L233.228 252.315L233.767 252.971L231.697 253.678L230.872 252.652L227.506 253.813L229.357 256.169L230.148 255.9L231.175 257.213L230.519 257.432L230.956 257.987L232.723 257.381L233.683 258.593L232.067 259.132L232.437 259.586L234.053 259.031L234.844 260.024L232.908 260.68L234.878 263.339Z" fill="#241E2C"/>
<path d="M244.101 254.655L243.377 253.847L243.932 253.662L244.656 254.469L244.101 254.655Z" fill="#241E2C"/>
<path d="M236.982 254.436L236.494 253.864L237.335 253.577L237.823 254.15L236.982 254.436Z" fill="#241E2C"/>
<path d="M233.615 255.462L233.346 255.126L234.17 254.856L234.44 255.193L233.615 255.462Z" fill="#241E2C"/>
<path d="M231.562 252.685L231.327 252.416L232.454 252.029L232.673 252.315L231.562 252.685Z" fill="#241E2C"/>
<path d="M242.755 260.831L242.267 260.276L243.344 259.906L243.832 260.478L242.755 260.831Z" fill="#241E2C"/>
<path d="M239.103 261.588L238.53 260.898L239.49 260.562L240.079 261.269L239.103 261.588Z" fill="#241E2C"/>
<path d="M237.621 250.598L237.385 250.329L239.186 249.723L239.422 249.992L237.621 250.598Z" fill="#241E2C"/>
<path d="M215.303 261.437C217.424 262.683 225.368 267.496 228.767 268.455C231.107 269.112 233.648 269.28 236.173 268.944C237.334 268.792 242.905 267.917 242.299 266.251C241.407 263.793 238.226 264.618 235.904 264.483C231.814 264.248 228.717 261.79 226.176 259.35C223.264 256.556 221.16 254.89 217.727 252.55C215.741 251.187 212.038 250.564 210.287 252.433C209.244 253.543 209.362 257.936 215.303 261.437Z" fill="#F79E7E"/>
<path d="M261.689 25.6399C261.571 25.6399 261.436 25.5894 261.352 25.4885C261.201 25.3033 261.234 25.0509 261.42 24.8994C271.905 16.4841 269.162 2.64931 269.145 2.51467C269.094 2.27904 269.246 2.06024 269.465 2.00975C269.683 1.95926 269.919 2.11073 269.97 2.32953C270.003 2.48101 272.848 16.8039 261.958 25.5389C261.874 25.6231 261.773 25.6399 261.689 25.6399Z" fill="#21207D"/>
<path d="M247.669 42.1001C241.189 42.1001 233.026 40.8547 229.475 37.7578C226.193 34.8798 223.449 34.7956 223.046 34.8966C222.827 34.9471 222.591 34.8293 222.524 34.6105C222.456 34.3917 222.574 34.1729 222.793 34.0888C223.348 33.9204 226.361 33.9036 230.03 37.1183C234.76 41.2754 249.15 41.9991 254.502 40.619C274.48 35.4352 277.964 15.6929 277.997 15.4909C278.031 15.2553 278.25 15.1038 278.486 15.1375C278.721 15.1711 278.873 15.3899 278.839 15.6256C278.805 15.8275 275.254 36.1084 254.721 41.4269C253.055 41.8645 250.513 42.1001 247.669 42.1001Z" fill="#21207D"/>
<path d="M245.801 49.068C245.817 49.0848 245.851 49.1016 245.851 49.1016L245.801 49.1353L245.666 49.169L245.346 49.2194L244.673 49.3204L243.31 49.5224L240.617 49.96C239.725 50.1451 238.934 50.2798 238.058 50.5322L235.366 51.3064L235.265 51.3401C234.945 51.4243 234.608 51.2559 234.524 50.9362C234.474 50.7847 234.507 50.6332 234.558 50.4986C235.096 49.4214 235.887 48.6472 236.813 47.9908C237.722 47.3512 238.833 46.8968 239.893 46.6444C240.936 46.3751 242.014 46.2404 243.108 46.2573C243.646 46.2404 244.185 46.3077 244.723 46.3751C244.993 46.4256 245.262 46.4592 245.531 46.5434L245.952 46.6612L246.541 46.8632C247.147 47.0651 247.484 47.7215 247.282 48.3274C247.063 48.9502 246.406 49.2699 245.801 49.068Z" fill="#21207D"/>
<path d="M254.165 46.4258C255.495 45.9209 256.841 46.0051 258.171 46.3753C258.827 46.5773 259.501 46.8634 260.107 47.3179C260.712 47.7554 261.301 48.3614 261.537 49.1861C261.621 49.5227 261.436 49.8593 261.1 49.9603C261.015 49.9771 260.931 49.9939 260.847 49.9771L260.696 49.9603C260.09 49.8593 259.585 49.8593 259.063 49.8088C258.541 49.7751 258.02 49.7078 257.464 49.6573C256.387 49.5058 255.276 49.3544 254.132 48.7821L254.064 48.7485C253.425 48.4455 253.172 47.6713 253.475 47.0486C253.627 46.7456 253.879 46.5268 254.165 46.4258Z" fill="#21207D"/>
<path d="M250.816 68.4907C249.335 68.4907 247.08 68.2214 246.238 66.673C246.121 66.471 246.205 66.2186 246.407 66.1008C246.609 65.9829 246.861 66.0671 246.979 66.2691C247.719 67.6323 250.345 67.7333 251.675 67.6155L250.867 53.36C250.85 53.1244 251.035 52.9224 251.271 52.9224C251.506 52.8887 251.708 53.0907 251.708 53.3263L252.533 67.9858C252.55 68.2046 252.382 68.3897 252.163 68.4234C252.112 68.4234 251.574 68.4907 250.816 68.4907Z" fill="#21207D"/>
<path d="M245.818 73.0856C245.06 73.0856 244 72.9173 243.007 72.1768C241.661 71.1837 240.853 69.4502 240.583 67.0434C240.55 66.8078 240.718 66.6058 240.954 66.5722C241.206 66.5385 241.391 66.7068 241.425 66.9424C241.661 69.1136 242.367 70.6283 243.512 71.4867C244.757 72.4124 246.137 72.2272 246.541 72.1599C246.794 72.1094 246.996 72.2609 247.03 72.4965C247.08 72.7322 246.929 72.951 246.693 72.9846C246.525 73.0519 246.222 73.0856 245.818 73.0856Z" fill="#21207D"/>
<path d="M240.701 56.44C240.314 57.4498 240.6 58.4933 241.34 58.7795C242.081 59.0656 242.973 58.4597 243.36 57.4667C243.747 56.4568 243.461 55.4133 242.721 55.1272C241.997 54.8411 241.088 55.4302 240.701 56.44Z" fill="#21207D"/>
<path d="M256.656 56.44C256.269 57.4498 256.555 58.4933 257.296 58.7795C258.036 59.0656 258.928 58.4597 259.315 57.4667C259.702 56.4568 259.416 55.4133 258.676 55.1272C257.952 54.8411 257.043 55.4302 256.656 56.44Z" fill="#21207D"/>
<path d="M238.715 57.5677C238.614 57.5677 238.513 57.534 238.429 57.4667C238.26 57.3152 238.243 57.0459 238.395 56.8776C238.445 56.8103 239.758 55.3629 242.03 54.454C244.538 53.4442 246.692 54.4204 246.793 54.4709C246.995 54.5718 247.096 54.8243 246.995 55.0263C246.894 55.2282 246.642 55.3292 246.44 55.2282C246.423 55.2114 244.504 54.3699 242.35 55.2282C240.263 56.0698 239.034 57.4162 239.034 57.433C238.95 57.5172 238.832 57.5677 238.715 57.5677Z" fill="#21207D"/>
<path d="M255.091 57.3658C254.99 57.3658 254.889 57.3321 254.805 57.2648C254.637 57.1133 254.62 56.844 254.771 56.6757C254.822 56.6084 256.135 55.161 258.407 54.2521C260.914 53.2423 263.069 54.2185 263.17 54.269C263.372 54.3699 263.473 54.6224 263.372 54.8244C263.271 55.0263 263.018 55.1273 262.816 55.0263C262.8 55.0095 260.881 54.168 258.727 55.0263C256.64 55.8679 255.411 57.2143 255.411 57.2311C255.327 57.3153 255.209 57.3658 255.091 57.3658Z" fill="#21207D"/>
<path d="M291.159 229.105C290.923 229.105 290.738 228.92 290.738 228.684C290.654 216.062 291.782 201.318 292.741 191.152C293.078 187.382 293.482 183.578 293.886 180.145C294.66 173.446 295.602 167.421 296.259 163.466C297.184 157.962 297.942 154.36 297.942 154.327C297.992 154.091 298.228 153.94 298.447 154.007C298.682 154.058 298.817 154.276 298.767 154.512C298.767 154.546 298.009 158.131 297.084 163.6C296.444 167.556 295.485 173.564 294.727 180.246C294.323 183.679 293.936 187.483 293.6 191.236C292.64 201.368 291.513 216.095 291.597 228.684C291.58 228.92 291.395 229.105 291.159 229.105Z" fill="#21207D"/>
<path d="M342.021 175.752C341.886 175.752 341.752 175.685 341.668 175.567C340.994 174.524 329.735 164.543 316.809 160.369C316.59 160.302 316.472 160.066 316.539 159.847C316.607 159.628 316.842 159.511 317.078 159.578C330.458 163.887 341.667 173.985 342.391 175.113C342.526 175.315 342.459 175.567 342.257 175.702C342.172 175.735 342.105 175.752 342.021 175.752Z" fill="#21207D"/>
<path d="M294.306 188.897C294.273 188.897 294.239 188.897 294.206 188.88C293.987 188.829 293.835 188.594 293.886 188.375C295.552 181.087 304.573 175.213 304.96 174.961C305.162 174.826 305.415 174.894 305.549 175.079C305.684 175.281 305.617 175.533 305.432 175.668C305.347 175.735 296.326 181.609 294.727 188.56C294.66 188.762 294.492 188.897 294.306 188.897Z" fill="#21207D"/>
<path d="M184.554 197.649C184.319 197.649 184.133 197.447 184.133 197.228C184.167 195.175 184.167 194.317 184.133 192.213C184.032 184.319 183.527 174.844 182.635 164.055C181.76 153.351 180.818 145.205 180.818 145.121C180.784 144.885 180.952 144.683 181.188 144.649C181.424 144.633 181.626 144.784 181.659 145.02C181.676 145.104 182.619 153.267 183.494 163.988C184.386 174.793 184.891 184.286 184.992 192.196C185.025 194.317 185.025 195.158 184.992 197.228C184.975 197.464 184.773 197.649 184.554 197.649Z" fill="#21207D"/>
<path d="M291.327 105.148C291.26 105.148 291.193 105.131 291.125 105.097L290.957 104.996C286.733 102.522 279.681 101.866 271.131 103.111C270.895 103.145 270.693 102.977 270.659 102.758C270.626 102.522 270.777 102.32 271.013 102.287C279.748 101.007 286.985 101.714 291.378 104.273L291.513 104.357C291.715 104.474 291.799 104.727 291.681 104.929C291.63 105.064 291.479 105.148 291.327 105.148Z" fill="#21207D"/>
<path d="M183.931 178.714C183.746 178.714 183.578 178.596 183.527 178.411C179.639 165.99 172.705 152.93 171.931 152.189C171.729 152.071 171.678 151.819 171.813 151.617C171.931 151.415 172.217 151.364 172.402 151.482C173.21 151.97 180.38 165.536 184.318 178.142C184.385 178.361 184.268 178.596 184.049 178.664C184.015 178.714 183.965 178.714 183.931 178.714Z" fill="#21207D"/>
<path d="M279.647 238.362C279.496 238.362 279.344 238.278 279.26 238.126C277.728 234.811 266.3 226.9 260.814 223.096C259.063 221.885 257.801 221.009 257.38 220.656C257.195 220.505 257.178 220.235 257.33 220.067C257.481 219.899 257.751 219.865 257.919 220.016C258.289 220.336 259.619 221.245 261.285 222.406C267.26 226.547 278.368 234.255 280.001 237.773C280.102 237.992 280.001 238.227 279.799 238.328C279.765 238.345 279.714 238.362 279.647 238.362Z" fill="#21207D"/>
<path d="M268.657 208.118C268.589 208.118 268.505 208.101 268.438 208.067C264.466 205.745 248.022 198.154 238.58 196.437C238.345 196.404 238.193 196.185 238.244 195.949C238.277 195.713 238.496 195.562 238.732 195.612C248.275 197.329 264.853 205.004 268.858 207.343C269.06 207.461 269.128 207.714 269.01 207.916C268.943 208.033 268.808 208.118 268.657 208.118Z" fill="#21207D"/>
<path d="M293.162 191.203C298.564 201.15 304.421 210.036 310.817 216.937C301.19 199.618 296.797 164.509 296.679 163.533C295.939 168.044 295.03 173.901 294.306 180.196C293.936 183.292 293.549 187.046 293.162 191.203Z" fill="#21207D"/>
<path d="M350.891 206.283C350.74 206.283 350.605 206.199 350.521 206.064C347.475 200.426 342.93 198.575 338.521 196.774C335.676 195.613 332.731 194.418 330.341 192.213C330.173 192.061 330.156 191.792 330.324 191.624C330.476 191.455 330.745 191.439 330.913 191.607C333.185 193.711 335.929 194.838 338.84 196.017C343.385 197.868 348.081 199.77 351.261 205.677C351.379 205.879 351.295 206.132 351.093 206.25C351.026 206.266 350.959 206.283 350.891 206.283Z" fill="#21207D"/>
<path d="M183.073 188.392L179.235 207.697C179.235 207.697 154.848 211.467 151.818 203.068C150.203 198.591 153.4 190.294 153.4 190.294C156.228 189.082 159.358 188.123 162.691 187.466C163.465 187.315 164.256 187.18 165.081 187.062C170.871 186.255 176.34 186.541 180.885 187.719C181.642 187.921 182.366 188.14 183.073 188.392Z" fill="#F79E7E"/>
<path d="M-32.5 436.5C32.1464 462.234 217.341 450.339 329.5 427.5C409.832 411.124 376.406 375.75 415.487 347.946L9.5829 399.33L-24.4823 313.191L-32.5 436.5Z" fill="#FDB620"/>
<path d="M-24.4819 313.191L9.58323 399.33L415.47 347.946C417.541 346.465 419.577 344.984 421.546 343.486L352.81 279.513L-24.4819 313.191Z" fill="white"/>
<path d="M-12.7007 316.877L-5.39619 334.448L67.7665 309.909L-12.7007 316.877Z" fill="#340000"/>
<path d="M-5.39648 334.448L17.3417 389.164L113.815 378.595L67.7662 309.909L-5.39648 334.448Z" fill="#BED9E0"/>
<path d="M197.261 284.141L187.903 273.807L174.691 264.938L184.049 275.255L197.261 284.141Z" fill="#BED9E0"/>
<path d="M158.87 322.885L168.211 333.202L168.228 332.815L170.046 287.002L160.688 276.668L159.779 299.541L158.87 322.885Z" fill="#D9965F"/>
<path d="M184.049 275.255L174.691 264.938L160.688 276.668L170.029 287.002L184.049 275.255Z" fill="#BED9E0"/>
<path d="M184.049 275.255L170.029 287.003L168.228 333.203L195.443 330.341L197.261 284.141L184.049 275.255Z" fill="#D9965F"/>
<path d="M168.211 333.623C167.959 333.606 167.791 333.421 167.791 333.186L169.608 286.969C169.625 286.733 169.861 286.565 170.046 286.565C170.281 286.582 170.467 286.767 170.45 287.003L168.632 333.219C168.632 333.455 168.447 333.623 168.211 333.623Z" fill="#B35C15"/>
<path d="M158.87 322.885L168.211 333.202L168.228 332.799C166.074 327.884 162.741 319.385 162.421 313.14C161.916 303.16 160.166 300.08 159.779 299.524L158.87 322.885Z" fill="#340000"/>
<path d="M324.164 292.876L311.911 283.03L312.702 305.28L324.955 315.126L324.164 292.876Z" fill="#8C3E0D"/>
<path d="M384.62 286.195L372.367 276.349L311.912 283.03L324.164 292.876L384.62 286.195Z" fill="#994F12"/>
<path d="M324.164 292.877L324.955 315.127L385.393 308.445L384.619 286.195L324.164 292.877Z" fill="#340000"/>
<path d="M248.796 309.64C248.544 316.288 253.071 320.193 259.181 319.755C265.341 319.267 271.063 316.675 271.854 312.568C272.645 308.495 268.387 302.352 261.739 300.265C255.04 298.161 249.032 303.025 248.796 309.64Z" fill="#E03714"/>
<path d="M229.508 310.33C229.222 318.021 234.456 322.565 241.525 322.061C242.737 321.976 243.932 321.791 245.077 321.556C250.732 320.411 255.411 317.668 256.168 313.729C256.185 313.578 256.218 313.46 256.235 313.309C256.791 308.596 251.96 301.813 244.471 299.491C236.712 297.05 229.778 302.688 229.508 310.33Z" fill="#E03714"/>
<path d="M245.077 321.556C250.732 320.412 255.411 317.668 256.168 313.73C256.185 313.578 256.219 313.46 256.235 313.309C253.458 312.417 249.974 313.46 247.534 316.17C246.086 317.769 245.262 319.688 245.077 321.556Z" fill="#340000"/>
<path d="M243.209 329.854C242.855 339.06 249.133 344.479 257.582 343.874C266.115 343.2 274.042 339.615 275.119 333.91C276.213 328.272 270.323 319.755 261.116 316.877C251.843 313.966 243.545 320.698 243.209 329.854Z" fill="#E03714"/>
<path d="M273.437 289.409V289.46C273.453 289.527 273.47 289.594 273.487 289.662C273.47 289.577 273.453 289.493 273.437 289.409Z" fill="#9E9E9E"/>
<path d="M273.352 300.063V317.634C275.624 320.361 281.448 322.296 288.281 322.296C295.097 322.296 300.921 320.361 303.193 317.634V300.063C300.921 302.773 295.097 304.708 288.281 304.708C281.448 304.708 275.624 302.773 273.352 300.063Z" fill="#F2745A"/>
<path d="M273.352 288.87V300.063C275.624 302.773 281.448 304.708 288.281 304.708C295.097 304.708 300.921 302.773 303.193 300.063V288.736C303.193 288.988 303.159 289.241 303.109 289.476C303.075 289.645 303.024 289.796 302.974 289.964C302.923 290.082 302.873 290.234 302.822 290.352C302.57 290.873 302.217 291.361 301.745 291.833C301.627 291.934 301.526 292.068 301.409 292.169C301.274 292.27 301.123 292.405 300.988 292.506C300.853 292.624 300.702 292.725 300.55 292.826C300.231 293.044 299.911 293.246 299.574 293.432C299.406 293.533 299.238 293.634 299.036 293.718C298.665 293.903 298.278 294.088 297.857 294.256C297.706 294.324 297.538 294.391 297.352 294.441C297.117 294.542 296.864 294.627 296.612 294.711C296.511 294.744 296.444 294.778 296.343 294.812C296.023 294.913 295.703 294.997 295.383 295.081C295.282 295.115 295.165 295.148 295.064 295.182C294.761 295.266 294.474 295.317 294.155 295.384C294.121 295.401 294.087 295.401 294.054 295.401C293.986 295.418 293.936 295.434 293.869 295.451C293.683 295.485 293.498 295.519 293.296 295.552C293.111 295.603 292.926 295.636 292.724 295.653C292.354 295.721 291.967 295.754 291.563 295.805C291.361 295.838 291.176 295.855 290.974 295.872C290.789 295.889 290.587 295.906 290.401 295.923C290.216 295.923 290.048 295.939 289.863 295.956C289.644 295.956 289.425 295.973 289.19 295.973C288.887 295.99 288.601 295.99 288.298 295.99H287.894C287.675 295.99 287.473 295.99 287.254 295.973C287.002 295.973 286.732 295.956 286.497 295.939C286.396 295.939 286.278 295.923 286.177 295.906C285.773 295.872 285.386 295.838 284.999 295.805H284.932C284.578 295.771 284.208 295.704 283.871 295.67C283.518 295.62 283.164 295.552 282.828 295.502C282.76 295.485 282.693 295.468 282.626 295.451C282.525 295.434 282.407 295.418 282.306 295.384C281.481 295.216 280.69 295.014 279.966 294.761C279.125 294.492 278.334 294.172 277.61 293.802C277.088 293.549 276.634 293.263 276.196 292.994C275.877 292.775 275.607 292.556 275.338 292.338C275.237 292.237 275.119 292.152 275.018 292.035C274.917 291.934 274.816 291.833 274.715 291.749V291.732C274.665 291.681 274.614 291.631 274.581 291.58C274.497 291.496 274.446 291.429 274.379 291.345C274.328 291.277 274.295 291.244 274.261 291.176V291.159C274.126 290.991 274.008 290.806 273.907 290.621C273.806 290.436 273.722 290.267 273.655 290.082V290.065C273.604 289.964 273.571 289.847 273.554 289.746C273.537 289.678 273.52 289.611 273.504 289.544V289.493C273.386 289.224 273.369 289.056 273.352 288.87Z" fill="#BED9E0"/>
<path d="M288.281 322.296C281.464 322.296 275.641 320.361 273.352 317.634V323.053C273.369 323.239 273.386 323.407 273.436 323.592C273.453 323.693 273.47 323.794 273.504 323.895C273.537 323.996 273.571 324.08 273.604 324.181C273.672 324.366 273.756 324.551 273.857 324.737C273.924 324.838 273.958 324.922 274.025 325.023C274.076 325.124 274.126 325.208 274.21 325.309C274.328 325.494 274.497 325.679 274.682 325.864C274.783 325.965 274.867 326.066 274.985 326.167C275.086 326.268 275.203 326.369 275.304 326.47C275.422 326.571 275.54 326.672 275.658 326.79C275.809 326.891 275.978 327.026 276.163 327.126C276.6 327.429 277.072 327.682 277.577 327.951C278.755 328.523 280.101 329.012 281.599 329.365C281.986 329.466 282.373 329.533 282.777 329.617C283.467 329.752 284.174 329.853 284.881 329.937H284.932C285.436 329.988 285.941 330.038 286.463 330.055C286.934 330.089 287.406 330.106 287.86 330.106C287.995 330.122 288.129 330.122 288.264 330.122C288.567 330.122 288.853 330.106 289.156 330.106H289.24C289.627 330.089 290.014 330.072 290.385 330.038C290.772 330.005 291.159 329.971 291.563 329.937C291.95 329.904 292.337 329.853 292.724 329.803C293.111 329.735 293.498 329.685 293.885 329.601C294.289 329.516 294.693 329.432 295.08 329.331C295.535 329.23 295.956 329.096 296.376 328.978C296.713 328.877 297.066 328.759 297.369 328.641C297.538 328.574 297.706 328.523 297.874 328.456C298.278 328.288 298.665 328.12 299.052 327.918C299.238 327.817 299.406 327.732 299.591 327.631C299.978 327.413 300.348 327.177 300.685 326.941C300.954 326.739 301.19 326.554 301.426 326.352C301.426 326.352 301.426 326.352 301.442 326.352L301.779 326.016C301.981 325.814 302.149 325.612 302.318 325.41C302.519 325.124 302.705 324.838 302.856 324.535C302.923 324.417 302.957 324.265 303.008 324.147C303.058 324.046 303.092 323.929 303.109 323.811C303.125 323.76 303.125 323.727 303.142 323.676C303.193 323.441 303.226 323.188 303.226 322.936V317.685C300.921 320.361 295.097 322.296 288.281 322.296Z" fill="#BED9E0"/>
<path d="M288.28 295.923C296.515 295.923 303.192 292.698 303.192 288.719C303.192 284.741 296.515 281.516 288.28 281.516C280.044 281.516 273.368 284.741 273.368 288.719C273.368 292.698 280.044 295.923 288.28 295.923Z" fill="#6C949F"/>
<path d="M313.656 317.94C313.589 317.991 313.538 318.024 313.504 318.075C313.555 318.024 313.606 317.974 313.656 317.94Z" fill="#384D53"/>
<path d="M314.177 317.67C314.144 317.687 314.11 317.704 314.076 317.721C314.11 317.687 314.144 317.687 314.177 317.67Z" fill="#3F565C"/>
<path d="M314.295 317.637C314.245 317.654 314.211 317.671 314.177 317.688V317.671C314.228 317.654 314.262 317.637 314.295 317.637Z" fill="#41595F"/>
<path d="M314.447 317.586V317.603C314.396 317.603 314.345 317.62 314.294 317.637L314.311 317.62C314.362 317.603 314.413 317.603 314.447 317.586Z" fill="#435C63"/>
<path d="M314.582 317.552V317.569C314.531 317.569 314.48 317.586 314.446 317.603V317.586C314.497 317.569 314.548 317.569 314.582 317.552Z" fill="#455F66"/>
<path d="M314.717 317.536C314.683 317.553 314.632 317.553 314.581 317.57V317.553C314.632 317.553 314.683 317.536 314.717 317.536Z" fill="#476269"/>
<path d="M314.851 317.519L314.716 317.536C314.767 317.536 314.801 317.519 314.851 317.519Z" fill="#49656C"/>
<path d="M314.986 317.519C314.935 317.519 314.901 317.519 314.85 317.536V317.519H314.986Z" fill="#4C686F"/>
<path d="M379.9 325.295C379.884 325.346 379.884 325.396 379.884 325.43V325.447C379.884 325.497 379.884 325.531 379.867 325.581L379.85 325.648C379.833 325.733 379.816 325.834 379.783 325.918L379.766 325.968L376.501 334.569C376.517 334.518 376.534 334.468 376.534 334.417C376.551 334.384 376.551 334.367 376.551 334.333C376.568 334.316 376.568 334.283 376.568 334.266C376.568 334.215 376.585 334.182 376.585 334.131V333.862C376.585 333.828 376.585 333.794 376.568 333.744C376.568 333.71 376.568 333.66 376.551 333.626C376.551 333.593 376.534 333.559 376.534 333.542C376.534 333.525 376.534 333.525 376.534 333.508C376.517 333.458 376.517 333.424 376.501 333.391C376.484 333.34 376.467 333.306 376.45 333.256C376.433 333.222 376.416 333.172 376.4 333.138L376.383 333.121C376.383 333.071 376.366 333.054 376.349 333.003C376.315 332.953 376.299 332.919 376.265 332.869C376.231 332.818 376.198 332.768 376.164 332.717C376.13 332.65 376.08 332.6 376.029 332.549C375.962 332.465 375.895 332.381 375.811 332.313C375.71 332.212 375.609 332.128 375.491 332.061C375.39 331.994 375.306 331.926 375.205 331.876C375.171 331.859 375.154 331.842 375.12 331.842C375.053 331.792 374.986 331.758 374.902 331.741C374.834 331.707 374.767 331.691 374.7 331.674C374.632 331.64 374.582 331.623 374.515 331.623C374.464 331.607 374.414 331.59 374.346 331.59C374.296 331.573 374.245 331.573 374.195 331.556H374.094L354.587 329.839L329.998 327.685L310.474 325.985H310.424C310.373 325.968 310.339 325.968 310.289 325.968H310.154C310.104 325.968 310.053 325.985 310.02 325.985C309.969 325.985 309.936 325.985 309.885 326.002C309.835 326.002 309.801 326.002 309.75 326.019C309.7 326.019 309.666 326.036 309.616 326.052C309.565 326.052 309.532 326.069 309.481 326.086C309.431 326.103 309.38 326.103 309.346 326.137C309.296 326.153 309.245 326.17 309.195 326.187C309.128 326.221 309.077 326.238 309.027 326.271C308.959 326.305 308.892 326.355 308.825 326.406C308.741 326.456 308.673 326.524 308.606 326.591C308.505 326.692 308.404 326.81 308.32 326.928L312.931 318.849C313.049 318.546 313.234 318.277 313.487 318.075C313.52 318.024 313.571 317.991 313.638 317.957V317.94C313.706 317.89 313.773 317.856 313.84 317.822C313.891 317.789 313.958 317.755 314.009 317.738C314.025 317.721 314.042 317.721 314.059 317.721C314.093 317.704 314.126 317.688 314.16 317.688C314.194 317.671 314.227 317.654 314.278 317.637C314.328 317.62 314.379 317.603 314.429 317.603C314.463 317.587 314.513 317.57 314.564 317.57C314.614 317.553 314.665 317.553 314.699 317.536H314.833C314.884 317.519 314.917 317.519 314.968 317.519H315.288L334.811 319.236L354.587 320.97H354.621L356.102 321.104L359.418 321.39L361.875 321.592L377.409 322.855C377.443 322.855 377.477 322.855 377.51 322.871C377.561 322.871 377.611 322.888 377.662 322.888C377.712 322.905 377.763 322.905 377.813 322.922C377.881 322.939 377.931 322.956 377.999 322.972C378.066 322.989 378.15 323.023 378.217 323.04V323.057C378.251 323.057 378.285 323.073 378.302 323.09C378.369 323.124 378.453 323.158 378.52 323.191C378.604 323.242 378.705 323.292 378.79 323.36C378.907 323.427 379.008 323.511 379.109 323.612C379.126 323.629 379.143 323.646 379.16 323.662C379.227 323.73 379.295 323.797 379.345 323.864C379.395 323.932 379.429 323.965 379.48 324.033C379.513 324.066 379.547 324.117 379.564 324.167C379.597 324.218 379.631 324.268 379.648 324.319C379.665 324.353 379.698 324.403 379.715 324.437V324.454C379.732 324.487 379.749 324.521 379.766 324.571V324.588C379.783 324.622 379.783 324.655 379.799 324.689C379.816 324.723 379.816 324.773 379.833 324.807C379.85 324.857 379.85 324.891 379.867 324.925V324.942C379.884 324.992 379.884 325.026 379.884 325.076V325.177C379.884 325.211 379.9 325.261 379.9 325.295Z" fill="#6C949F"/>
<path d="M374.111 331.539C375.474 331.657 376.602 332.751 376.602 333.979C376.602 335.208 375.474 336.1 374.111 335.982L310.491 330.411C309.128 330.293 308 329.199 308 327.971C308 326.742 309.128 325.85 310.491 325.968L330.014 327.668L354.604 329.822L374.111 331.539Z" fill="#F2C29D"/>
<path d="M368.395 306.442V309.892L368.378 322.347V327.127L366.863 331.082V322.212L366.88 310.414L368.395 306.442Z" fill="#6C949F"/>
<path d="M342.291 308.243L343.805 304.287L368.395 306.442L366.88 310.397L342.291 308.243Z" fill="#587982"/>
<path d="M354.604 309.154L354.637 324.992L330.048 322.838L330.014 307L354.604 309.154Z" fill="#F2C29D"/>
<path d="M295.165 298.498L296.663 294.526C296.663 294.577 296.663 294.627 296.663 294.678L295.165 298.65C295.165 298.599 295.165 298.549 295.165 298.498Z" fill="#7A8B8F"/>
<path d="M295.165 298.651L296.663 294.679C296.663 294.729 296.663 294.78 296.68 294.847L295.182 298.819C295.165 298.769 295.165 298.718 295.165 298.651Z" fill="#7D8F94"/>
<path d="M295.182 298.818L296.68 294.846C296.68 294.896 296.696 294.947 296.696 294.997L295.198 298.969C295.198 298.919 295.182 298.868 295.182 298.818Z" fill="#819498"/>
<path d="M295.199 298.97L296.697 294.998C296.714 295.048 296.713 295.099 296.73 295.149L295.232 299.121C295.216 299.087 295.216 299.037 295.199 298.97Z" fill="#85989D"/>
<path d="M295.232 299.138L296.73 295.166C296.747 295.216 296.764 295.267 296.781 295.317L295.283 299.289C295.266 299.239 295.249 299.188 295.232 299.138Z" fill="#899CA1"/>
<path d="M295.283 299.289L296.781 295.317C296.797 295.368 296.814 295.418 296.831 295.469L295.333 299.441C295.316 299.39 295.3 299.34 295.283 299.289Z" fill="#8DA1A6"/>
<path d="M295.333 299.441L296.831 295.469C296.848 295.519 296.865 295.57 296.899 295.637L295.401 299.609C295.367 299.559 295.35 299.491 295.333 299.441Z" fill="#90A5AA"/>
<path d="M295.401 299.609L296.899 295.637C296.916 295.687 296.949 295.755 296.983 295.805L295.485 299.777C295.451 299.71 295.418 299.659 295.401 299.609Z" fill="#94A9AF"/>
<path d="M295.468 299.777L296.966 295.805C296.999 295.873 297.033 295.923 297.067 295.991L295.569 299.963C295.535 299.895 295.501 299.828 295.468 299.777Z" fill="#98AEB3"/>
<path d="M295.569 299.946L297.067 295.974C297.1 296.041 297.151 296.109 297.201 296.159L295.704 300.131C295.653 300.081 295.619 300.013 295.569 299.946Z" fill="#9CB2B8"/>
<path d="M295.704 300.148L297.202 296.176C297.252 296.26 297.319 296.327 297.37 296.395L295.872 300.367C295.805 300.299 295.754 300.215 295.704 300.148Z" fill="#A0B6BC"/>
<path d="M295.872 300.367L297.369 296.395C297.454 296.496 297.555 296.596 297.656 296.697L296.158 300.669C296.057 300.569 295.956 300.468 295.872 300.367Z" fill="#A3BBC1"/>
<path d="M296.158 300.67L297.656 296.698C297.875 296.899 298.144 297.085 298.413 297.236L296.916 301.208C296.646 301.057 296.394 300.888 296.158 300.67Z" fill="#A7BFC5"/>
<path d="M296.916 301.208L298.413 297.236C298.531 297.303 298.666 297.371 298.801 297.421L297.303 301.393C297.185 301.343 297.05 301.275 296.916 301.208Z" fill="#A3BBC1"/>
<path d="M297.319 301.393L298.817 297.421C298.901 297.455 299.002 297.488 299.103 297.522L297.605 301.494C297.488 301.46 297.403 301.427 297.319 301.393Z" fill="#A0B6BC"/>
<path d="M297.588 301.494L299.086 297.522C299.17 297.539 299.238 297.572 299.322 297.589L297.824 301.561C297.74 301.528 297.673 301.511 297.588 301.494Z" fill="#9CB2B8"/>
<path d="M297.824 301.562L299.322 297.59C299.389 297.606 299.457 297.623 299.541 297.64L298.043 301.612C297.959 301.578 297.892 301.578 297.824 301.562Z" fill="#98AEB3"/>
<path d="M298.026 301.595L299.524 297.623C299.592 297.64 299.659 297.64 299.726 297.657L298.228 301.629C298.161 301.612 298.094 301.612 298.026 301.595Z" fill="#94A9AF"/>
<path d="M298.228 301.629L299.726 297.657C299.776 297.657 299.81 297.674 299.861 297.674L298.363 301.646C298.312 301.646 298.279 301.629 298.228 301.629Z" fill="#90A5AA"/>
<path d="M298.363 301.645L299.861 297.673L412.323 307.519L410.825 311.474L298.363 301.645Z" fill="#9BB1B7"/>
<path d="M295.216 226.901L296.713 222.946L296.663 294.543L295.165 298.498L295.216 226.901Z" fill="#7C8D92"/>
<path d="M295.367 226.025L296.865 222.053C296.848 222.087 296.848 222.121 296.831 222.154L295.333 226.126C295.35 226.093 295.367 226.059 295.367 226.025Z" fill="#677579"/>
<path d="M295.333 226.127L296.831 222.155C296.815 222.222 296.781 222.289 296.764 222.374L295.266 226.346C295.3 226.278 295.317 226.194 295.333 226.127Z" fill="#6A7A7D"/>
<path d="M295.283 226.345L296.781 222.373C296.764 222.44 296.747 222.507 296.747 222.575L295.249 226.547C295.249 226.479 295.266 226.412 295.283 226.345Z" fill="#6E7E82"/>
<path d="M295.232 226.531L296.73 222.559C296.713 222.626 296.713 222.676 296.713 222.744L295.215 226.716C295.232 226.665 295.232 226.598 295.232 226.531Z" fill="#728286"/>
<path d="M295.215 226.715L296.713 222.743C296.713 222.794 296.713 222.861 296.713 222.912L295.215 226.884C295.215 226.833 295.215 226.783 295.215 226.715Z" fill="#76878B"/>
<path d="M295.215 226.901L296.713 222.929V222.946L295.215 226.901Z" fill="#7A8B8F"/>
<path d="M295.367 226.026L296.865 222.054C297.05 221.582 297.37 221.178 297.79 220.892L296.292 224.864C295.872 225.15 295.552 225.554 295.367 226.026Z" fill="#0B1525"/>
<path d="M296.292 224.864L297.79 220.892C297.875 220.841 297.959 220.774 298.043 220.724L296.545 224.696C296.461 224.746 296.377 224.797 296.292 224.864Z" fill="#0C1626"/>
<path d="M296.545 224.696L298.043 220.724C298.11 220.69 298.177 220.656 298.262 220.623L296.764 224.595C296.68 224.628 296.612 224.662 296.545 224.696Z" fill="#0C1628"/>
<path d="M296.764 224.595L298.262 220.623C298.329 220.589 298.396 220.572 298.464 220.539L296.966 224.511C296.881 224.544 296.814 224.561 296.764 224.595Z" fill="#0D1729"/>
<path d="M296.949 224.511L298.447 220.539C298.514 220.522 298.564 220.488 298.632 220.471L297.134 224.443C297.067 224.477 297.016 224.494 296.949 224.511Z" fill="#0D182B"/>
<path d="M297.134 224.46L298.632 220.488C298.682 220.471 298.75 220.454 298.8 220.438L297.302 224.41C297.252 224.426 297.184 224.443 297.134 224.46Z" fill="#0E192C"/>
<path d="M297.302 224.41L298.8 220.438C298.851 220.421 298.918 220.404 298.969 220.404L297.471 224.376C297.42 224.376 297.37 224.393 297.302 224.41Z" fill="#0E1A2D"/>
<path d="M297.487 224.376L298.985 220.404C299.036 220.387 299.103 220.387 299.154 220.371L297.656 224.343C297.588 224.343 297.538 224.359 297.487 224.376Z" fill="#0F1A2F"/>
<path d="M297.656 224.342L299.154 220.37C299.204 220.37 299.271 220.354 299.322 220.354L297.824 224.326C297.757 224.326 297.706 224.342 297.656 224.342Z" fill="#0F1B30"/>
<path d="M297.824 224.326L299.322 220.353C299.372 220.353 299.439 220.354 299.49 220.337L297.992 224.309C297.942 224.309 297.874 224.326 297.824 224.326Z" fill="#0F1C32"/>
<path d="M297.992 224.309L299.49 220.337C299.541 220.337 299.608 220.337 299.658 220.337L298.161 224.309C298.11 224.309 298.06 224.309 297.992 224.309Z" fill="#101D33"/>
<path d="M298.177 224.309L299.675 220.337C299.742 220.337 299.793 220.337 299.86 220.337L298.362 224.309C298.295 224.309 298.228 224.309 298.177 224.309Z" fill="#101E35"/>
<path d="M298.362 224.326L299.86 220.354C299.877 220.354 299.911 220.354 299.928 220.354L298.43 224.326C298.396 224.326 298.379 224.326 298.362 224.326Z" fill="#111E36"/>
<path d="M294.828 217.879L294.811 217.913C294.744 217.947 294.677 217.997 294.609 218.064C294.677 217.98 294.744 217.93 294.828 217.879Z" fill="#637174"/>
<path d="M294.947 217.812C294.896 217.829 294.845 217.863 294.812 217.913L294.828 217.88C294.862 217.846 294.913 217.812 294.947 217.812Z" fill="#677579"/>
<path d="M295.081 217.711L295.064 217.745C295.047 217.745 295.03 217.761 295.013 217.761C295.03 217.745 295.064 217.728 295.081 217.711Z" fill="#677579"/>
<path d="M295.3 217.61C295.215 217.643 295.131 217.694 295.064 217.744L295.081 217.711C295.148 217.677 295.232 217.643 295.3 217.61Z" fill="#6A7A7D"/>
<path d="M295.501 217.526C295.484 217.543 295.467 217.543 295.451 217.559C295.467 217.543 295.484 217.543 295.501 217.526Z" fill="#6E7E82"/>
<path d="M295.67 217.459L295.653 217.492C295.602 217.492 295.552 217.509 295.501 217.543V217.526C295.552 217.509 295.619 217.492 295.67 217.459Z" fill="#728286"/>
<path d="M295.855 217.425C295.788 217.442 295.721 217.458 295.653 217.492L295.67 217.458C295.737 217.442 295.788 217.442 295.855 217.425Z" fill="#76878B"/>
<path d="M296.528 217.324V217.341C296.511 217.341 296.494 217.341 296.478 217.324H296.528Z" fill="#85989D"/>
<path d="M298.413 224.326L299.928 220.37L412.39 230.199L410.892 234.171L298.413 224.326Z" fill="#12213A"/>
<path d="M410.892 234.171C412.66 234.323 414.073 235.72 414.073 237.302L414.023 308.899C414.023 310.481 412.592 311.626 410.825 311.474L298.363 301.628C296.596 301.477 295.165 300.063 295.165 298.481L295.216 226.884C295.216 225.302 296.646 224.157 298.43 224.309L410.892 234.171Z" fill="white"/>
<path d="M418.55 230.839L418.499 307.973L417.001 311.929L417.052 234.811V234.659C417.052 234.592 417.035 234.541 417.035 234.491C417.035 234.44 417.018 234.39 417.018 234.339C417.001 234.306 416.984 234.255 416.984 234.222C416.984 234.205 416.984 234.205 416.984 234.188C416.968 234.138 416.951 234.087 416.934 234.037C416.917 233.986 416.9 233.919 416.884 233.868C416.867 233.818 416.85 233.767 416.816 233.717C416.799 233.649 416.766 233.599 416.732 233.548C416.715 233.481 416.682 233.431 416.631 233.363C416.597 233.296 416.564 233.229 416.513 233.178C416.513 233.178 416.513 233.161 416.496 233.161C416.446 233.077 416.395 233.027 416.345 232.943C416.328 232.926 416.328 232.926 416.311 232.926C416.227 232.825 416.126 232.724 416.042 232.64C415.924 232.522 415.79 232.404 415.638 232.32C415.52 232.219 415.402 232.151 415.268 232.084C415.234 232.067 415.2 232.051 415.167 232.034C415.083 231.983 414.982 231.95 414.881 231.916C414.797 231.865 414.696 231.849 414.611 231.815C414.561 231.798 414.527 231.781 414.494 231.781C414.46 231.764 414.426 231.748 414.376 231.748C414.308 231.731 414.241 231.714 414.174 231.714C414.106 231.697 414.039 231.68 413.972 231.68C413.938 231.663 413.888 231.663 413.854 231.663L295.451 221.313C295.434 221.296 295.417 221.296 295.383 221.296H294.862C294.794 221.313 294.744 221.313 294.693 221.313C294.676 221.313 294.66 221.329 294.643 221.329C294.592 221.329 294.559 221.329 294.525 221.346C294.458 221.363 294.407 221.363 294.357 221.38C294.289 221.397 294.239 221.414 294.171 221.43C294.104 221.447 294.054 221.464 293.986 221.498C293.919 221.515 293.869 221.548 293.801 221.565C293.717 221.599 293.65 221.649 293.582 221.683C293.498 221.733 293.414 221.784 293.33 221.834C293.111 221.986 292.943 222.154 292.775 222.356C292.623 222.558 292.488 222.777 292.404 223.012L293.902 219.057C294.003 218.805 294.138 218.569 294.306 218.35C294.407 218.249 294.491 218.148 294.609 218.064C294.676 217.997 294.744 217.946 294.811 217.913C294.845 217.862 294.895 217.829 294.946 217.812C294.963 217.795 294.979 217.778 295.013 217.761C295.03 217.761 295.047 217.744 295.064 217.744C295.131 217.694 295.215 217.644 295.299 217.627V217.61H295.316C295.366 217.593 295.4 217.576 295.451 217.559C295.467 217.543 295.484 217.543 295.501 217.543C295.552 217.509 295.602 217.492 295.653 217.492C295.72 217.458 295.787 217.442 295.855 217.425C295.905 217.408 295.972 217.391 296.023 217.391C296.073 217.374 296.141 217.357 296.191 217.357C296.242 217.341 296.309 217.341 296.359 217.341C296.393 217.324 296.444 217.324 296.477 217.324C296.494 217.341 296.511 217.341 296.528 217.341V217.324H296.713C296.763 217.324 296.831 217.324 296.898 217.341H296.949L415.352 227.691C415.402 227.708 415.436 227.708 415.47 227.708C415.537 227.725 415.604 227.725 415.672 227.742C415.739 227.759 415.806 227.776 415.874 227.792C415.958 227.809 416.042 227.826 416.109 227.843C416.21 227.877 416.294 227.91 416.379 227.944C416.395 227.944 416.412 227.961 416.429 227.961C416.53 227.994 416.614 228.045 416.715 228.095C416.732 228.112 416.766 228.112 416.783 228.129C417.052 228.28 417.321 228.466 417.54 228.668V228.684C417.59 228.718 417.658 228.769 417.691 228.819C417.742 228.87 417.792 228.937 417.843 229.004C417.91 229.071 417.961 229.139 418.011 229.206C418.062 229.273 418.112 229.341 418.146 229.425C418.179 229.492 418.213 229.543 418.23 229.61C418.264 229.644 418.28 229.677 418.297 229.711C418.314 229.728 418.314 229.728 418.314 229.745C418.331 229.762 418.331 229.795 418.348 229.829C418.365 229.863 418.365 229.896 418.365 229.93C418.398 229.98 418.415 230.031 418.415 230.081C418.449 230.132 418.466 230.182 418.466 230.233C418.499 230.283 418.499 230.351 418.499 230.418C418.516 230.468 418.533 230.519 418.516 230.569C418.533 230.62 418.55 230.67 418.533 230.721C418.55 230.755 418.55 230.805 418.55 230.839Z" fill="#6C949F"/>
<path d="M413.854 231.663C415.605 231.815 417.052 233.229 417.052 234.811L416.985 311.945C416.985 313.511 415.537 314.672 413.77 314.521L366.863 310.414L342.274 308.26L295.367 304.153C293.6 304.001 292.169 302.588 292.169 301.006L292.236 223.871C292.236 222.306 293.667 221.144 295.451 221.296L413.854 231.663ZM414.023 308.899L414.073 237.302C414.073 235.72 412.643 234.323 410.892 234.171L298.43 224.325C296.663 224.174 295.232 225.318 295.215 226.9L295.165 298.498C295.165 300.08 296.595 301.477 298.363 301.645L410.825 311.491C412.592 311.643 414.023 310.481 414.023 308.899Z" fill="#F2C29D"/>
<path d="M361.874 321.592L356.101 324.302L354.637 324.992L354.62 320.97L354.604 309.171L356.118 309.289L356.101 321.104L359.417 321.39L361.874 321.592Z" fill="#340000"/>
<path d="M331.066 255.51L334.952 263.374L334.793 268.081L330.393 275.652L331.066 255.51Z" fill="#6D6FB6"/>
<path d="M346.817 260.961L350.785 258.611L358.734 258.873L346.646 266.03L346.817 260.961Z" fill="#7D7FBC"/>
<path d="M346.963 256.003L346.639 266.226L342.574 263.426L343.09 248.142L346.963 256.003Z" fill="#6D6FB6"/>
<path d="M358.734 258.872L350.784 258.611L346.963 256.003L343.09 248.142L358.734 258.872Z" fill="#BFC0DC"/>
<path d="M346.301 276.232L346.469 271.271L342.402 268.52L341.888 283.82L346.301 276.232Z" fill="#6D6FB6"/>
<path d="M350.26 273.904L334.952 263.374L331.066 255.51L358.203 274.163L350.26 273.904Z" fill="#BFC0DC"/>
<path d="M341.889 283.82L346.302 276.232L350.261 273.905L358.204 274.164L341.889 283.82Z" fill="#7D7FBC"/>
<path d="M330.394 275.652L342.436 268.52L338.559 265.854L334.794 268.082L330.394 275.652Z" fill="#7D7FBC"/>
<path d="M345.282 440.649C379.078 428.043 406.259 413.568 428.122 398.017C430.192 396.536 432.229 395.055 434.198 393.557C465.839 369.59 484.925 343.115 494.94 316.691C496.892 303.193 489.739 290.553 481.256 288.668C461.632 284.309 449.766 301.291 437.328 339.177C434.046 349.174 430.344 360.989 426.59 370.078C417.115 364.844 398.416 369.354 378.943 403.083C361.372 427.167 354.034 433.412 345.282 440.649Z" fill="#DBB088"/>
<path d="M353.966 436.828C357.029 435.599 360.059 434.371 363.021 433.109C365.697 431.981 368.306 430.853 370.881 429.692C371.285 427.824 371.638 425.888 371.941 423.852C374.23 408.603 372.261 395.66 367.531 394.954C362.802 394.247 357.13 406.045 354.841 421.293C354.774 421.748 354.707 422.202 354.639 422.623C353.932 427.79 353.73 432.671 353.966 436.828Z" fill="#DBB088"/>
<path d="M353.966 462.268C356.861 461.19 359.37 460.862 362.164 459.768C365.227 458.539 368.592 456.528 371.554 455.266C370.999 454.324 361.843 431.224 361.203 430.298C359.15 427.336 356.878 424.727 354.639 422.64C349.27 417.608 343.885 415.353 340.922 417.423C336.816 420.25 347.368 452.472 353.966 462.268Z" fill="#DBB088"/>
<path d="M363.004 433.513C362.852 433.513 362.718 433.429 362.634 433.294C362.533 433.109 352.333 414.915 341.006 417.793C340.787 417.844 340.552 417.709 340.501 417.49C340.451 417.271 340.586 417.036 340.804 416.985C352.771 413.922 362.937 432.116 363.374 432.89C363.492 433.092 363.408 433.345 363.206 433.463C363.139 433.496 363.071 433.513 363.004 433.513Z" fill="#340000"/>
<path d="M370.864 430.113C370.847 430.113 370.814 430.113 370.797 430.113C370.561 430.062 370.41 429.844 370.46 429.625C370.511 429.322 375.998 398.858 367.38 395.358C367.162 395.274 367.061 395.021 367.145 394.802C367.229 394.583 367.481 394.482 367.7 394.567C376.957 398.32 371.538 428.48 371.302 429.776C371.235 429.961 371.066 430.113 370.864 430.113Z" fill="#340000"/>
<path d="M71.554 332.765L27.9795 319.671L49.8425 248.326C54.2184 232.572 64.2831 228.432 80.0029 226.412L81.0801 226.345C93.114 229.963 97.6583 245.885 94.0565 257.919L71.554 332.765Z" fill="#7D7FBC"/>
<path d="M72.1255 331.62C71.6037 333.623 67.8337 334.549 62.3637 334.347C58.358 334.229 53.4435 333.488 48.2428 332.142C42.1838 330.577 36.8653 328.473 33.1458 326.335C29.3084 324.114 27.1709 321.858 27.6253 320.108C28.0797 318.307 31.1597 317.381 35.7377 317.331C39.9958 317.297 45.5499 318.038 51.4911 319.569C56.8096 320.949 61.5727 322.75 65.1744 324.619C69.887 327.076 72.6304 329.651 72.1255 331.62Z" fill="#340000"/>
<path d="M65.1738 324.619L62.3631 334.347L58.1049 349.158C56.1863 355.789 50.1272 360.114 43.5465 360.114C42.1663 360.114 40.7526 359.929 39.3556 359.525C31.3106 357.203 26.6654 348.821 28.988 340.776L33.1451 326.335L35.737 317.331C39.9952 317.297 45.5493 318.038 51.4905 319.569C56.809 320.949 61.5721 322.75 65.1738 324.619Z" fill="#F29C8A"/>
<path d="M111.61 395.173C104.996 392.833 98.5665 390.157 92.1708 387.414C88.9898 386.017 85.8089 384.62 82.6615 383.156C79.4974 381.725 76.3669 380.244 73.2532 378.729C66.9754 375.767 60.8491 372.586 54.7564 369.287C48.731 365.904 42.7393 362.437 37.0506 358.431C30.1837 353.584 28.5343 344.075 33.3983 337.208C37.6228 331.216 45.3817 329.213 51.8615 332.007C58.2571 334.751 64.333 338.05 70.3752 341.432C76.3669 344.883 82.2912 348.468 88.0978 352.255C91.0263 354.106 93.9212 356.008 96.7992 357.96C99.6941 359.862 102.555 361.848 105.4 363.834C111.088 367.84 116.727 371.93 122.18 376.356C126.876 380.177 127.599 387.077 123.779 391.773C120.766 395.442 115.852 396.654 111.61 395.173Z" fill="#F29C8A"/>
<path d="M108.698 240.045C99.1552 237.941 89.5954 236.005 80.002 234.204C82.3582 222.995 83.6879 211.483 83.8898 199.769C93.6516 199.82 103.43 200.022 113.192 200.392C112.939 213.839 111.425 227.102 108.698 240.045Z" fill="#F29C8A"/>
<path d="M115.296 210.608L95.2674 212.829L93.4834 161.664L124.519 160.587L126.69 197.126C127.077 203.926 122.079 209.85 115.296 210.608Z" fill="#F29C8A"/>
<path d="M120.766 214.816C120.53 208.908 113.747 204.296 110.549 200.005C108.648 197.446 107.032 194.669 106.072 191.623C105.736 190.563 105.029 189.519 104.07 188.526C111.273 184.335 108.866 178.899 107.739 174.338C106.51 169.289 107.739 164.189 113.175 163.869L110.078 148.486H84.2768C75.1041 148.486 68.1531 154.865 66.47 163.869C64.9552 172.049 67.1937 178.764 67.7491 184.133C68.3887 190.192 64.9721 195.864 61.9426 202.176C60.3437 205.508 59.0309 210.271 59.9397 214.041C63.1712 227.354 81.3988 225.318 90.6051 225.452C97.1017 225.419 103.75 225.267 110.112 223.82C114.134 222.894 120.412 220.588 120.732 215.657C120.766 215.354 120.782 215.085 120.766 214.816Z" fill="#E03714"/>
<path d="M107.336 183.141C110.18 186.187 110.937 190.109 109.019 191.893C107.1 193.694 103.246 192.667 100.401 189.621C97.557 186.574 96.7997 182.653 98.7183 180.869C100.637 179.085 104.491 180.094 107.336 183.141Z" fill="#F29C8A"/>
<path d="M129.047 162.388C124.502 165.283 116.794 163.028 109.388 162.725C101.831 161.698 93.5844 164.189 90.5044 162.422C87.0542 160.891 95.4695 149.008 111.761 147.645C132.177 145.945 133.961 159.712 129.047 162.388Z" fill="#E03714"/>
<path d="M126.236 160.167C127.077 163.853 123.678 168.094 117.837 165.485C110.651 162.27 107.756 164.172 107.756 164.172C107.756 161.227 113.209 154.831 117.837 154.831C122.466 154.848 125.579 157.305 126.236 160.167Z" fill="#E03714"/>
<path d="M153.148 428.379C133.053 429.658 113.95 429.776 95.8234 428.901C90.993 428.665 86.2299 428.362 81.551 427.975C70.5438 427.083 59.9236 425.821 49.6738 424.205C46.476 406.264 47.2165 387.784 51.9123 370.061L60.0415 339.413H129.804L139.465 368.9C145.81 388.289 150.388 408.199 153.148 428.379Z" fill="#21207D"/>
<path d="M149.243 284.461C146.247 288.551 140.963 291.546 134.853 293.331C133.456 293.734 132.009 294.088 130.544 294.357C118.965 296.528 107.217 287.524 102.723 274.059C98.2127 260.612 107.116 246.659 118.292 242.923C118.292 242.923 137.091 250.884 147.324 264.904C153.148 272.881 152.895 279.479 149.243 284.461Z" fill="#7D7FBC"/>
<path d="M149.243 284.461C146.248 288.551 140.963 291.547 134.853 293.331L132.329 284.545L138.388 272.343C139.196 272.915 140.121 281.987 149.243 284.461Z" fill="#340000"/>
<path d="M109.742 228.28C109.742 228.28 81.382 223.349 67.4126 228.819C46.2733 237.099 50.3127 252.011 57.6003 290.301C59.2329 298.851 59.8388 307.586 59.4685 316.287L58.4755 339.749C58.4419 339.85 58.3745 339.935 58.3745 340.035C58.3745 342.88 74.2795 345.202 93.8871 345.202C113.495 345.202 129.4 342.897 129.4 340.035C129.4 339.85 129.316 339.665 129.181 339.48L135.105 260.612C136.401 239.254 128.861 231.141 109.742 228.28Z" fill="#7D7FBC"/>
<path d="M146.466 326.773L101.175 331.065L93.803 253.274C92.6249 240.769 101.461 231.646 113.966 230.468C126.471 229.29 138.505 242.889 139.7 255.394L146.466 326.773Z" fill="#7D7FBC"/>
<path d="M146.568 325.898C146.349 325.898 146.164 325.729 146.147 325.511L138.994 253.307C138.977 253.072 139.145 252.87 139.364 252.853C139.583 252.819 139.802 253.004 139.819 253.223L146.972 325.426C146.988 325.662 146.82 325.864 146.601 325.881C146.584 325.898 146.568 325.898 146.568 325.898Z" fill="#340000"/>
<path d="M146.568 325.477C146.837 327.53 143.706 329.802 138.573 331.687C134.82 333.068 129.989 334.246 124.654 334.953C118.444 335.777 112.738 335.828 108.463 335.256C104.087 334.65 101.243 333.371 101.007 331.57C100.771 329.752 103.262 327.715 107.47 325.965C111.408 324.316 116.845 322.919 122.937 322.094C128.39 321.37 133.456 321.236 137.496 321.606C142.781 322.111 146.298 323.474 146.568 325.477Z" fill="#340000"/>
<path d="M137.479 321.623L138.556 331.705L140.189 347.02C141.064 355.183 135.24 362.538 127.145 363.632L126.724 363.683C118.41 364.575 110.937 358.549 110.045 350.218L108.446 335.273L107.453 325.982C111.391 324.333 116.828 322.936 122.92 322.111C128.39 321.371 133.44 321.253 137.479 321.623Z" fill="#F29C8A"/>
<path d="M216.785 334.094C200.712 339.329 160.907 357.304 153.754 359.677C142.983 363.918 114.017 370.465 110.988 354.072C109.641 346.785 116.155 339.733 122.736 336.922C129.687 333.943 136.84 331.553 144.026 329.247C151.23 327.042 158.484 324.955 165.805 323.104C169.457 322.145 173.11 321.219 176.795 320.36C180.465 319.452 184.15 318.627 187.853 317.802C195.259 316.186 202.681 314.672 210.221 313.51C216.196 312.602 221.767 316.691 222.693 322.666C223.416 327.463 220.892 332.007 216.785 334.094Z" fill="#F29C8A"/>
<path d="M226.075 323.424L227.674 322.313L229.088 321.387L231.915 319.586L234.625 317.886C235.231 317.466 235.786 316.961 236.224 316.355C237.099 315.143 237.537 313.578 237.368 311.962C237.335 311.625 237.2 311.003 237.082 310.447C236.965 309.875 236.847 309.32 236.746 308.747C236.561 307.603 236.325 306.475 236.19 305.314C236.072 304.371 236.746 303.53 237.688 303.412C238.395 303.328 239.068 303.698 239.388 304.287C239.944 305.314 240.415 306.374 240.92 307.418C241.172 307.939 241.391 308.461 241.627 309C241.862 309.538 242.081 309.993 242.333 310.767C243.242 313.611 242.872 316.927 241.273 319.569C240.499 320.916 239.405 322.06 238.143 322.969C237.032 323.76 236.072 324.282 235.029 324.905C233.985 325.477 232.942 326.016 231.865 326.504C231.326 326.756 230.788 326.975 230.249 327.211L229.424 327.53L229.02 327.682L228.818 327.749L228.734 327.783C228.734 327.783 228.785 327.749 228.802 327.715C227.624 328.473 226.058 328.119 225.318 326.958C224.56 325.746 224.914 324.181 226.075 323.424Z" fill="#F29C8A"/>
<path d="M225.049 277.341C225.015 277.341 224.982 277.358 224.965 277.392H224.931C224.965 277.375 224.982 277.358 225.015 277.341H225.049Z" fill="#8F230D"/>
<path d="M224.965 277.392C224.931 277.392 224.915 277.409 224.881 277.443H224.847C224.881 277.426 224.898 277.409 224.931 277.392H224.965Z" fill="#94240D"/>
<path d="M224.881 277.442C224.847 277.459 224.813 277.493 224.779 277.527C224.813 277.493 224.83 277.476 224.847 277.442H224.881Z" fill="#98250E"/>
<path d="M224.78 277.527C224.763 277.544 224.729 277.56 224.712 277.594C224.729 277.56 224.746 277.544 224.763 277.527H224.78Z" fill="#9D270E"/>
<path d="M224.696 277.61C224.662 277.644 224.645 277.678 224.611 277.729H224.594C224.628 277.678 224.662 277.644 224.696 277.61Z" fill="#A1280E"/>
<path d="M249.453 279.866C249.419 279.866 249.402 279.866 249.369 279.883C249.352 279.883 249.335 279.883 249.318 279.9C249.301 279.9 249.301 279.9 249.285 279.9C249.251 279.917 249.234 279.933 249.2 279.95C249.167 279.967 249.15 279.984 249.116 280.001C249.099 280.034 249.066 280.051 249.032 280.085L248.948 280.169C248.931 280.203 248.897 280.236 248.864 280.287C248.847 280.304 248.83 280.337 248.813 280.371L230.653 308.007C230.653 308.024 230.636 308.057 230.619 308.074C230.586 308.125 230.552 308.192 230.518 308.259C230.502 308.293 230.468 308.343 230.451 308.394C230.434 308.444 230.417 308.478 230.401 308.529C230.367 308.596 230.333 308.663 230.316 308.731C230.249 308.882 230.199 309.05 230.148 309.219C230.148 309.236 230.148 309.252 230.148 309.252C230.081 309.471 230.03 309.69 229.997 309.926C229.98 309.959 229.963 310.01 229.963 310.043L229.913 310.397C229.896 310.498 229.879 310.582 229.879 310.683C229.862 310.767 229.862 310.851 229.845 310.952C229.845 311.02 229.845 311.104 229.828 311.188V312.08C229.828 312.147 229.845 312.215 229.845 312.282C229.845 312.366 229.862 312.433 229.862 312.501C229.862 312.585 229.879 312.652 229.896 312.736C229.896 312.82 229.913 312.905 229.929 312.989C229.946 313.056 229.963 313.123 229.98 313.191L232.387 323.272C232.403 323.306 232.403 323.34 232.42 323.373C232.471 323.575 232.538 323.744 232.605 323.878C232.639 323.979 232.69 324.046 232.74 324.097C232.791 324.181 232.841 324.232 232.925 324.282C232.942 324.316 232.976 324.333 233.026 324.349L207.578 321.387C207.511 321.387 207.427 321.354 207.36 321.303C207.275 321.253 207.225 321.202 207.174 321.118C207.124 321.067 207.073 320.983 207.04 320.899C206.972 320.765 206.905 320.596 206.855 320.394C206.838 320.361 206.838 320.327 206.821 320.293L204.414 310.212C204.397 310.144 204.38 310.077 204.38 310.01C204.364 309.926 204.347 309.841 204.347 309.757H204.33C204.313 309.69 204.313 309.606 204.296 309.538C204.296 309.522 204.296 309.505 204.296 309.505V309.32C204.28 309.252 204.28 309.185 204.28 309.101C204.263 309.034 204.263 308.966 204.263 308.882V308.663C204.263 308.596 204.263 308.512 204.28 308.445C204.263 308.36 204.28 308.293 204.28 308.209C204.28 308.125 204.28 308.057 204.296 307.973C204.296 307.889 204.313 307.805 204.33 307.704C204.33 307.62 204.347 307.519 204.364 307.418C204.364 307.3 204.381 307.182 204.414 307.064C204.414 307.031 204.414 306.997 204.431 306.947C204.465 306.711 204.532 306.492 204.582 306.273C204.582 306.273 204.582 306.257 204.599 306.24C204.599 306.206 204.616 306.172 204.633 306.122C204.683 305.92 204.751 305.735 204.835 305.55C204.852 305.499 204.869 305.465 204.885 305.415C204.902 305.364 204.936 305.331 204.953 305.28C204.986 305.213 205.02 305.146 205.054 305.095C205.071 305.078 205.087 305.062 205.087 305.045L224.544 277.813C224.56 277.779 224.577 277.745 224.594 277.729H224.611C224.645 277.678 224.661 277.644 224.695 277.611C224.695 277.594 224.712 277.594 224.712 277.594C224.729 277.56 224.762 277.543 224.779 277.527C224.813 277.493 224.847 277.459 224.88 277.442C224.914 277.409 224.931 277.392 224.964 277.392C224.981 277.358 225.015 277.342 225.048 277.342C225.065 277.325 225.082 277.325 225.099 277.325H225.116C225.133 277.308 225.149 277.308 225.183 277.308H225.234L249.453 279.866Z" fill="#0F1C32"/>
<path d="M204.633 306.122C204.616 306.173 204.599 306.207 204.599 306.24H204.583C204.599 306.207 204.599 306.156 204.633 306.122Z" fill="#B32C10"/>
<path d="M204.599 306.24C204.583 306.256 204.583 306.272 204.583 306.272C204.583 306.272 204.583 306.256 204.599 306.24Z" fill="#B82D10"/>
<path d="M204.431 306.947C204.414 306.997 204.414 307.031 204.414 307.065H204.397C204.397 307.031 204.414 306.98 204.431 306.947Z" fill="#B32C10"/>
<path d="M204.414 307.064C204.381 307.182 204.364 307.3 204.364 307.418H204.347C204.364 307.3 204.381 307.182 204.414 307.064Z" fill="#AF2B10"/>
<path d="M204.364 307.418C204.347 307.519 204.33 307.62 204.33 307.704H204.313C204.313 307.62 204.33 307.519 204.364 307.418Z" fill="#AA2A0F"/>
<path d="M204.33 307.704C204.313 307.805 204.297 307.889 204.297 307.973H204.28C204.297 307.889 204.297 307.788 204.313 307.704H204.33Z" fill="#A6290F"/>
<path d="M204.296 307.973C204.28 308.058 204.28 308.125 204.28 308.209H204.263C204.28 308.125 204.28 308.041 204.296 307.973Z" fill="#A1280E"/>
<path d="M204.28 308.209C204.28 308.293 204.263 308.36 204.28 308.445H204.263V308.209H204.28Z" fill="#9D270E"/>
<path d="M204.28 308.444C204.263 308.512 204.263 308.596 204.263 308.663V308.444H204.28Z" fill="#98250E"/>
<path d="M204.28 309.101H204.263V308.882C204.263 308.966 204.263 309.034 204.28 309.101Z" fill="#8F230D"/>
<path d="M204.296 309.32C204.28 309.235 204.263 309.168 204.263 309.101H204.28C204.28 309.185 204.28 309.252 204.296 309.32Z" fill="#8B220C"/>
<path d="M204.297 309.32V309.505C204.297 309.437 204.28 309.37 204.297 309.32Z" fill="#86210C"/>
<path d="M204.381 310.009H204.364C204.347 309.925 204.33 309.841 204.33 309.757H204.347C204.347 309.841 204.364 309.925 204.381 310.009Z" fill="#7D1F0B"/>
<path d="M204.415 310.212C204.398 310.144 204.381 310.077 204.364 310.01H204.381C204.381 310.077 204.398 310.144 204.415 310.212Z" fill="#791E0B"/>
<path d="M230.451 308.394C230.518 308.259 230.586 308.125 230.653 308.007L248.796 280.354C249.352 279.513 249.958 279.748 250.244 280.943L251.018 284.208C251.355 285.605 251.119 287.76 250.547 288.988C250.48 289.123 250.412 289.241 250.345 289.358L240.987 303.917C240.92 304.018 240.852 304.153 240.785 304.287C240.65 304.557 240.549 304.893 240.448 305.263L238.008 314.705C237.907 315.076 237.789 315.412 237.671 315.682L234.036 323.457C233.447 324.72 232.706 324.635 232.37 323.255L229.946 313.157C229.643 311.794 229.879 309.639 230.451 308.394Z" fill="#BED9E0"/>
<path d="M208.723 303.597L225.84 278.924L245.851 281.145L228.768 306.273L208.723 303.597Z" fill="white"/>
<path d="M196.133 317.281C197.379 316.305 198.119 315.009 198.776 312.871C199.415 310.784 199.819 308.226 200.627 305.499C201.065 304.153 201.603 302.739 202.394 301.393C202.781 300.719 203.236 300.063 203.724 299.44L204.952 298.077C206.501 296.276 208.066 294.273 209.328 292.355L209.429 292.203C209.867 291.53 210.776 291.328 211.466 291.765C211.954 292.085 212.19 292.657 212.122 293.196C211.92 294.711 211.567 295.973 211.096 297.286C210.658 298.582 210.086 299.844 209.48 301.056C209.177 301.662 208.84 302.301 208.537 302.84C208.302 303.261 208.083 303.698 207.898 304.17C207.544 305.112 207.225 306.122 206.989 307.233C206.45 309.438 206.215 311.962 205.441 314.79C205.037 316.204 204.498 317.718 203.555 319.183C202.63 320.647 201.3 321.976 199.785 322.852C198.203 323.794 196.15 323.256 195.224 321.673C194.366 320.226 194.736 318.375 196.032 317.365L196.133 317.281Z" fill="#F29C8A"/>
<path d="M207.275 306.391C206.854 308.175 212.644 313.275 219.881 313.662L208.42 318.964L203.959 314.116L204.347 311.777L207.275 306.391Z" fill="#F29C8A"/>
<path d="M221.564 335.625L202.596 336.787L203.64 315.26L236.375 311.608L236.88 320.848C236.106 328.876 229.609 335.137 221.564 335.625Z" fill="#F29C8A"/>
<path d="M221.076 316.018C223.551 315.513 226.058 315.109 228.566 314.722L230.367 314.453C230.838 314.385 231.326 314.268 231.781 314.116C232.706 313.83 233.582 313.392 234.406 312.854C235.231 312.332 235.972 311.659 236.611 310.901L238.85 308.074C240.381 306.155 241.93 304.253 243.528 302.385C244.134 301.678 245.195 301.594 245.902 302.2C246.524 302.739 246.659 303.631 246.255 304.321C245.01 306.441 243.714 308.528 242.401 310.599C241.728 311.659 241.139 312.618 240.348 313.746C239.506 314.941 238.479 316.001 237.301 316.893C236.14 317.802 234.81 318.492 233.413 318.98C232.723 319.233 232 319.435 231.276 319.569C230.535 319.704 230.064 319.788 229.441 319.889C227.102 320.259 224.779 320.613 222.406 320.865L221.817 320.933C220.454 321.084 219.208 320.091 219.074 318.728C218.956 317.449 219.831 316.287 221.076 316.018Z" fill="#F29C8A"/>
<path d="M101.007 332.007C100.99 332.007 100.957 332.007 100.94 332.007C100.704 331.973 100.553 331.754 100.586 331.519C100.771 330.425 100.216 316.893 99.6775 303.816C99.1726 291.361 98.634 278.469 98.634 273.975V272.578C98.6003 256.017 98.5499 233.312 114.993 230.771C115.229 230.737 115.431 230.889 115.481 231.124C115.515 231.36 115.364 231.562 115.128 231.612C99.4082 234.053 99.4419 256.32 99.4755 272.595V273.992C99.4755 278.486 100.014 291.361 100.519 303.799C101.108 318.122 101.613 330.492 101.428 331.67C101.377 331.855 101.209 332.007 101.007 332.007Z" fill="#340000"/>
<path d="M58.3757 340.456C58.2579 340.456 58.1232 340.406 58.0391 340.305C57.5173 339.716 57.652 336.989 58.1906 328.675C58.847 318.442 59.7558 304.422 58.2074 296.899C55.9353 285.757 53.7978 264.971 53.7809 264.769C53.7641 264.533 53.9324 264.331 54.1512 264.315C54.4037 264.281 54.5888 264.466 54.6056 264.685C54.6225 264.887 56.7431 285.656 59.0153 296.747C60.5805 304.388 59.6717 318.459 59.0153 328.742C58.6787 334.094 58.342 339.16 58.6787 339.783C58.8301 339.951 58.8133 340.204 58.6282 340.372C58.5777 340.423 58.4767 340.456 58.3757 340.456Z" fill="#340000"/>
<path d="M100.486 313.612C100.284 313.612 100.115 313.477 100.065 313.275C98.3144 304.355 87.7111 299.76 82.6283 297.555C80.6927 296.714 79.8849 296.36 79.6324 295.956C79.5146 295.754 79.5651 295.502 79.7671 295.384C79.969 295.266 80.2215 295.317 80.3393 295.519C80.5244 295.738 81.7531 296.276 82.9481 296.798C88.1655 299.053 99.0381 303.766 100.873 313.124C100.923 313.342 100.772 313.578 100.536 313.612C100.536 313.612 100.502 313.612 100.486 313.612Z" fill="#340000"/>
<path d="M59.1657 319.923C58.9806 319.923 58.8123 319.805 58.7618 319.637C57.2807 314.924 48.8654 305.23 47.62 304.877C47.4012 304.809 47.2665 304.574 47.3338 304.355C47.4011 304.136 47.6368 304.001 47.8556 304.069C49.4713 304.523 58.0213 314.453 59.5697 319.385C59.637 319.603 59.5192 319.839 59.3004 319.906C59.2499 319.923 59.1994 319.923 59.1657 319.923Z" fill="#340000"/>
<path d="M145.355 315.48C145.288 315.48 145.221 315.463 145.17 315.429C138.707 312.147 125.142 312.4 124.99 312.4C124.754 312.4 124.569 312.215 124.569 311.979C124.569 311.743 124.754 311.558 124.99 311.558C125.562 311.541 138.909 311.322 145.557 314.689C145.759 314.79 145.843 315.042 145.742 315.261C145.658 315.395 145.507 315.48 145.355 315.48Z" fill="#340000"/>
<path d="M99.2904 275.103C99.0548 275.103 98.8696 274.918 98.8696 274.682C98.8696 267.378 104.407 261.302 106.932 259.669C107.689 259.181 108.211 259.03 108.598 259.181C108.817 259.282 108.901 259.518 108.817 259.737C108.732 259.939 108.497 260.04 108.278 259.955C108.093 259.955 107.369 260.258 106.241 261.268C103.818 263.406 99.7448 268.64 99.728 274.665C99.7112 274.918 99.526 275.103 99.2904 275.103Z" fill="#340000"/>
<path d="M124.755 176.307C124.604 177.368 123.863 178.074 123.106 177.889C122.349 177.704 121.86 176.694 122.012 175.634C122.163 174.574 122.904 173.867 123.661 174.052C124.419 174.237 124.924 175.247 124.755 176.307Z" fill="#21207D"/>
<path d="M119.487 177.435C119.403 177.435 119.318 177.418 119.251 177.368C119.066 177.233 118.999 176.981 119.133 176.779C119.217 176.644 121.389 173.463 125.411 172.857C125.63 172.823 125.849 172.992 125.882 173.211C125.916 173.446 125.765 173.648 125.529 173.682C121.86 174.22 119.84 177.199 119.823 177.233C119.756 177.368 119.621 177.435 119.487 177.435Z" fill="#21207D"/>
<path d="M116.458 171.258C116.962 170.299 117.703 169.609 118.41 169.02C119.15 168.431 119.908 167.943 120.716 167.522C121.54 167.118 122.399 166.765 123.308 166.512C124.233 166.26 125.092 166.075 126.186 166.091C126.977 166.091 127.616 166.748 127.616 167.539C127.616 168.077 127.313 168.549 126.859 168.801L126.64 168.919C126.017 169.256 125.226 169.592 124.503 169.912L122.264 170.871C121.49 171.191 120.699 171.46 119.925 171.73C119.15 172.016 118.359 172.184 117.619 172.47L117.552 172.487C117.097 172.672 116.575 172.437 116.407 171.982C116.323 171.746 116.34 171.477 116.458 171.258Z" fill="#21207D"/>
<path d="M122.28 166.747C122.078 166.747 121.893 166.731 121.691 166.697C121.456 166.663 121.304 166.444 121.338 166.226C121.372 165.99 121.574 165.839 121.809 165.872C122.903 166.041 123.997 165.603 124.788 164.677C125.916 163.381 126.269 161.446 125.731 159.611C124.721 156.178 120.631 155.606 120.597 155.606C120.362 155.572 120.21 155.37 120.244 155.134C120.278 154.899 120.463 154.73 120.715 154.764C120.9 154.798 125.377 155.42 126.539 159.376C127.161 161.496 126.724 163.735 125.428 165.233C124.586 166.226 123.459 166.747 122.28 166.747Z" fill="#340000"/>
<path d="M96.5972 151.735C96.4458 151.735 96.2943 151.651 96.227 151.499C96.126 151.297 96.2101 151.045 96.4289 150.944C96.5467 150.893 108.295 145.255 120.867 147.628C121.103 147.679 121.254 147.897 121.204 148.116C121.153 148.352 120.951 148.503 120.716 148.453C108.396 146.13 96.917 151.651 96.7992 151.701C96.7151 151.718 96.6477 151.735 96.5972 151.735Z" fill="#340000"/>
<path d="M61.6063 218.468C61.4716 218.468 61.337 218.401 61.2528 218.283C57.5164 212.763 60.344 202.765 64.8041 195.309C69.281 187.82 71.0651 179.068 71.0819 178.967C71.1324 178.748 71.3344 178.58 71.57 178.63C71.8056 178.681 71.9403 178.899 71.9066 179.118C71.8898 179.202 70.0721 188.106 65.5278 195.713C61.2192 202.934 58.4421 212.561 61.9597 217.778C62.0944 217.963 62.0439 218.233 61.8419 218.367C61.7746 218.435 61.6904 218.468 61.6063 218.468Z" fill="#340000"/>
<path d="M110.13 224.224C110.045 224.224 109.944 224.19 109.877 224.14C109.692 224.005 109.658 223.736 109.81 223.551C112.015 220.706 112.822 216.936 112.048 213.234C111.106 208.807 108.026 204.886 103.582 202.479C94.3761 197.514 94.8137 190.58 94.8474 190.294C94.8642 190.058 95.0662 189.89 95.3018 189.906C95.5374 189.923 95.7057 190.125 95.6889 190.361C95.6889 190.428 95.3018 197.059 103.986 201.738C108.648 204.263 111.897 208.386 112.89 213.049C113.731 217.004 112.856 221.026 110.5 224.056C110.382 224.157 110.264 224.224 110.13 224.224Z" fill="#340000"/>
<path d="M101.528 225.486C101.427 225.486 101.327 225.453 101.259 225.385C101.074 225.234 101.057 224.965 101.209 224.796C105.989 219.192 101.209 209.901 101.158 209.817C101.057 209.615 101.125 209.363 101.343 209.245C101.545 209.144 101.798 209.211 101.916 209.43C102.118 209.834 107.015 219.31 101.865 225.352C101.764 225.436 101.646 225.486 101.528 225.486Z" fill="#340000"/>
<path d="M70.3917 224.224C70.3412 224.224 70.2907 224.207 70.2403 224.19C67.682 223.18 65.8306 221.43 65.0228 219.225C64.1812 216.953 64.501 214.344 65.9316 211.651C67.1603 209.329 68.2543 208.083 69.2304 206.973C70.6947 205.289 71.856 203.96 72.9332 199.668C72.9837 199.449 73.2193 199.315 73.4381 199.365C73.6569 199.416 73.8083 199.651 73.741 199.87C72.6134 204.364 71.3342 205.828 69.8532 207.528C68.9106 208.605 67.8503 209.817 66.6722 212.055C65.3594 214.529 65.0564 216.903 65.8138 218.939C66.5375 220.908 68.2206 222.49 70.5432 223.399C70.762 223.483 70.863 223.736 70.7788 223.938C70.7115 224.123 70.56 224.224 70.3917 224.224Z" fill="#340000"/>
<path d="M95.7221 429.305C95.5875 429.305 95.4528 429.238 95.3687 429.12L95.0321 428.632C93.1302 425.939 90.9254 423.431 88.5859 420.789C85.9604 417.826 83.2506 414.763 81.0122 411.363C80.9953 411.347 80.9785 411.313 80.9785 411.296C79.5816 409.209 78.4876 407.173 77.6292 405.069C71.8058 390.679 79.5311 374.689 79.6152 374.538C79.7162 374.336 79.9687 374.252 80.1875 374.353C80.3894 374.454 80.4736 374.706 80.3726 374.908C80.2884 375.06 72.7315 390.729 78.4202 404.766C79.2618 406.836 80.3558 408.839 81.7359 410.909C81.7527 410.926 81.7695 410.959 81.7695 410.993C83.9744 414.309 86.6504 417.338 89.2423 420.267C91.4976 422.808 93.8203 425.451 95.739 428.177L96.0756 428.665C96.2102 428.85 96.1597 429.12 95.9746 429.254C95.8904 429.271 95.8063 429.305 95.7221 429.305Z" fill="#0F1C32"/>
<path d="M134.786 332.445C131.504 332.445 130.443 329.6 130.006 328.389C129.955 328.237 129.888 328.069 129.837 327.968C129.736 327.884 129.652 327.766 129.652 327.631C129.652 327.396 129.837 327.21 130.073 327.21C130.46 327.21 130.578 327.547 130.78 328.102C131.335 329.6 132.497 332.731 137.058 331.182C143.824 328.877 160.166 324.147 160.335 324.097C160.57 324.029 160.789 324.164 160.856 324.383C160.924 324.602 160.789 324.837 160.57 324.905C160.402 324.955 144.076 329.668 137.327 331.974C136.368 332.31 135.526 332.445 134.786 332.445Z" fill="#340000"/>
<path d="M226.782 321.892C226.58 321.892 226.412 321.758 226.361 321.556C226.311 321.32 226.462 321.101 226.698 321.068C226.782 321.051 234.625 319.553 237.52 316.776C239.59 314.79 245.834 303.446 245.902 303.328C246.019 303.126 246.272 303.042 246.474 303.16C246.676 303.278 246.76 303.53 246.642 303.732C246.39 304.203 240.28 315.312 238.109 317.382C235.046 320.327 227.203 321.825 226.866 321.892C226.833 321.892 226.816 321.892 226.782 321.892Z" fill="#340000"/>
<path d="M229.222 328.069C229.037 328.069 228.869 327.951 228.818 327.766C228.751 327.547 228.886 327.312 229.104 327.244C229.172 327.228 235.685 325.393 238.041 323.154C238.21 322.986 238.479 323.003 238.63 323.171C238.782 323.34 238.782 323.609 238.614 323.76C236.106 326.134 229.609 327.968 229.323 328.052C229.289 328.069 229.256 328.069 229.222 328.069Z" fill="#340000"/>
<path d="M122.483 187.903L125.395 177.99C125.395 177.99 129.266 187.651 128.323 188.594C127.381 189.536 122.483 188.173 122.483 188.173V187.903Z" fill="#F29C8A"/>
<path d="M226.378 285.908L225.419 285.791L224.813 286.733L225.772 286.851L226.378 285.908Z" fill="#241E2C"/>
<path d="M237.217 287.154L236.224 287.036L235.567 287.995L236.56 288.113L237.217 287.154Z" fill="#241E2C"/>
<path d="M230.602 296.949L229.643 296.814L229.037 297.723L229.996 297.875L230.602 296.949Z" fill="#241E2C"/>
<path d="M223.634 296.461L224.324 295.418L225.233 295.552L224.543 296.596L223.634 296.461ZM227.792 298.346L229.374 295.99L231.848 296.327L230.249 298.7L227.792 298.346ZM224.661 294.896L225.301 293.903L226.209 294.021L225.553 295.014L224.661 294.896ZM226.445 296.36L227.371 296.495L229.862 292.742L231.663 292.977L230.047 295.401L229.155 295.283L227.96 297.084L225.099 296.68L225.789 295.637L226.849 295.788L226.445 296.36ZM221.076 293.852L221.817 292.691L222.726 292.809L223.685 291.328L225.94 291.614L222.843 296.343L219.747 295.906L220.42 294.862L222.288 295.115L222.961 294.088L221.076 293.852ZM230.249 292.186L230.451 291.883L232.252 292.119L232.05 292.422L230.249 292.186ZM227.186 290.453L227.724 289.628L229.02 289.779L226.815 293.129L225.89 293.011L226.731 291.715L227.102 291.765L227.909 290.554L227.186 290.453ZM224.459 290.116L225.62 288.315L226.26 288.399L226.647 287.81L228.297 288.012L226.731 290.419L224.459 290.116ZM228.212 288.871L228.751 288.046L230.047 288.197L229.508 289.022L228.212 288.871ZM227.354 286.716L227.775 286.06L229.811 286.296L229.374 286.952L227.354 286.716ZM223.618 287.39L225.166 284.966L227.606 285.235L226.041 287.659L223.618 287.39ZM234.288 288.652L235.938 286.178L238.53 286.464L236.846 288.955L234.288 288.652ZM239.657 285.892L235.719 285.454L234.322 287.541L232.79 287.356L233.952 285.622L233.245 285.538L232.1 287.272L230.232 287.053L231.477 285.151L230.636 285.05L230.165 285.774L228.128 285.538L228.7 284.663L224.947 284.242L222.591 287.928L224.207 288.13L222.776 290.352L221.766 290.217L221.261 291.008L222.271 291.143L222.187 291.277L221.329 292.624L220.891 293.314L219.898 293.179L219.494 293.819L220.487 293.953L219.275 295.838L218.552 295.738L217.811 296.899L220.218 297.252L219.612 298.195L220.47 298.313L221.076 297.37L227.186 298.262L226.782 298.851L230.501 299.39L232.959 295.771L230.804 295.468L232.437 293.045L232.706 293.078L233.093 292.506L234.322 292.657L234.743 292.035L233.245 291.85L234.743 289.628L234.002 289.544L232.639 291.58L230.838 291.345L231.679 290.082L230.72 289.965L228.364 293.533L227.539 293.415L227.354 293.684L228.179 293.802L227.236 295.216L226.176 295.064L230.686 288.231L231.427 288.315L231.09 288.82L231.78 288.904L232.117 288.399L232.723 288.467L231.915 289.678L232.285 289.729L233.093 288.5L233.615 288.568L233.211 289.174L237.099 289.645L239.657 285.892Z" fill="#241E2C"/>
<path d="M224.308 298.262L223.062 298.077L222.692 298.649L223.921 298.834L224.308 298.262Z" fill="#241E2C"/>
<path d="M224.762 292.405L223.87 292.287L223.298 293.163L224.19 293.28L224.762 292.405Z" fill="#241E2C"/>
<path d="M226.866 288.938L226.344 288.871L225.772 289.746L226.294 289.813L226.866 288.938Z" fill="#241E2C"/>
<path d="M222.49 288.584L222.069 288.534L221.312 289.729L221.733 289.779L222.49 288.584Z" fill="#241E2C"/>
<path d="M234.322 293.97L233.497 293.869L232.757 294.963L233.582 295.064L234.322 293.97Z" fill="#241E2C"/>
<path d="M236.106 290.486L235.063 290.351L234.373 291.361L235.433 291.496L236.106 290.486Z" fill="#241E2C"/>
<path d="M218.417 294.98L217.997 294.913L216.818 296.764L217.239 296.831L218.417 294.98Z" fill="#241E2C"/>
</g>
</svg>
