<svg width="24" height="24" viewBox="0 0 24 24" fill="" xmlns="http://www.w3.org/2000/svg">
<path d="M1 2.1C1 1.49249 1.49249 1 2.1 1H9.8C10.4075 1 10.9 1.49249 10.9 2.1V9.8C10.9 10.4075 10.4075 10.9 9.8 10.9H2.1C1.49249 10.9 1 10.4075 1 9.8V2.1Z" fill=""/>
<path d="M1 14.2001C1 13.5926 1.49249 13.1001 2.1 13.1001H9.8C10.4075 13.1001 10.9 13.5926 10.9 14.2001V21.9001C10.9 22.5076 10.4075 23.0001 9.8 23.0001H2.1C1.49249 23.0001 1 22.5076 1 21.9001V14.2001Z" fill=""/>
<path fill-rule="evenodd" clip-rule="evenodd" d="M13.1001 14.2001C13.1001 13.5926 13.5926 13.1001 14.2001 13.1001H17.5001C18.1076 13.1001 18.6001 13.5926 18.6001 14.2001V15.3001H20.8001V14.2001C20.8001 13.5926 21.2926 13.1001 21.9001 13.1001C22.5076 13.1001 23.0001 13.5926 23.0001 14.2001V16.4001C23.0001 17.0076 22.5076 17.5001 21.9001 17.5001H17.5001C16.8926 17.5001 16.4001 17.0076 16.4001 16.4001V15.3001H15.3001V21.9001C15.3001 22.5076 14.8076 23.0001 14.2001 23.0001C13.5926 23.0001 13.1001 22.5076 13.1001 21.9001V14.2001Z" fill=""/>
<path fill-rule="evenodd" clip-rule="evenodd" d="M16.3999 21.9C16.3999 21.2925 16.8924 20.8 17.4999 20.8H21.8999C22.5074 20.8 22.9999 21.2925 22.9999 21.9C22.9999 22.5076 22.5074 23 21.8999 23H17.4999C16.8924 23 16.3999 22.5076 16.3999 21.9Z" fill=""/>
<path fill-rule="evenodd" clip-rule="evenodd" d="M14.2001 1C13.5926 1 13.1001 1.49249 13.1001 2.1V7.6H15.3001C15.9076 7.6 16.4001 8.09249 16.4001 8.7V10.9H21.9001C22.5076 10.9 23.0001 10.4075 23.0001 9.8V2.1C23.0001 1.49249 22.5076 1 21.9001 1H14.2001Z" fill=""/>
<path d="M13.1001 9.79995C13.1001 9.19244 13.5926 8.69995 14.2001 8.69995C14.8076 8.69995 15.3001 9.19244 15.3001 9.79995C15.3001 10.4075 14.8076 10.9 14.2001 10.9C13.5926 10.9 13.1001 10.4075 13.1001 9.79995Z" fill=""/>
</svg>
