<svg width="20" height="21" viewBox="0 0 20 21" fill="" xmlns="http://www.w3.org/2000/svg">
<path d="M19.9973 12.2087C19.983 12.0592 19.9275 11.9153 19.8358 11.783L15.746 7.15228C15.5764 6.90725 15.2968 6.76074 14.9986 6.76074H12.2721C12.0209 6.76074 11.8177 6.96405 11.8177 7.2153V8.12438C11.8177 8.37563 12.0209 8.57894 12.2721 8.57894H14.522L17.6683 11.846H15.4531C14.4511 11.846 13.6354 12.6614 13.6354 13.6642C13.6354 14.1653 13.228 14.5733 12.7266 14.5733H7.27346C6.77198 14.5733 6.3646 14.1653 6.3646 13.6642C6.3646 12.6615 5.54893 11.846 4.54691 11.846H2.33168L5.47793 8.57894H7.72789C7.97906 8.57894 8.18233 8.37563 8.18233 8.12438V7.2153C8.18233 6.96405 7.97906 6.76074 7.72789 6.76074H5.00134C4.70313 6.76074 4.42354 6.90725 4.25403 7.15228L0.164181 11.783C0.072519 11.9153 0.0169508 12.0673 0.00263258 12.2169C-0.00329072 12.2462 0.00263258 19.1187 0.00263258 19.1187C0.00263258 20.1215 0.818301 20.9369 1.82032 20.9369H18.1797C19.1817 20.9369 19.9973 20.1215 19.9973 19.1187C19.9973 19.1187 20.0033 12.238 19.9973 12.2087Z" fill=""/>
<path d="M13.0476 5.11193L13.6901 4.46923C13.8676 4.29175 13.8676 4.00393 13.6901 3.8264L10.6423 0.777736C10.4648 0.600165 10.2323 0.511401 9.99975 0.511401C9.76721 0.511401 9.53467 0.600165 9.35718 0.777736L6.30941 3.8264C6.13188 4.00389 6.13188 4.2917 6.30941 4.46923L6.9519 5.11193C7.12942 5.28941 7.41707 5.28941 7.5946 5.11193L9.09093 3.61512L9.09093 12.3296C9.09089 12.5807 9.29433 12.7842 9.54528 12.7842L10.4541 12.7842C10.7051 12.7842 10.9086 12.5807 10.9086 12.3296L10.9086 3.61512L12.4049 5.11193C12.5824 5.28946 12.8701 5.28946 13.0476 5.11193Z" fill=""/>
</svg>
