<svg width="25" height="24" viewBox="0 0 25 24" fill="#BFC0DC" xmlns="http://www.w3.org/2000/svg">
<path fill-rule="evenodd" clip-rule="evenodd" d="M21.3632 15.9335C18.4395 18.7096 15.2694 20.3464 11.9881 20.3464C8.70672 20.3464 5.53675 18.7096 2.61298 15.9335C1.91531 15.2711 1.26624 14.5754 0.670847 13.8689C0.527782 13.6992 0.021143 13.0717 0.0151405 12.4313C0.00854683 11.7277 0.516731 11.0068 0.674618 10.8195C1.26898 10.1145 1.91679 9.42034 2.61298 8.75935C5.53675 5.98335 8.70672 4.34644 11.9881 4.34644C15.2694 4.34644 18.4395 5.98335 21.3632 8.75935C22.0882 9.44769 22.7607 10.172 23.3751 10.907C23.5225 11.0834 24.0251 11.7507 24.0147 12.4313C24.0057 13.0203 23.5034 13.6324 23.3759 13.7848C22.7614 14.5202 22.0886 15.2449 21.3632 15.9335Z" fill=""/>
<path fill-rule="evenodd" clip-rule="evenodd" d="M7.99133 12.3464C7.99133 14.5556 9.7822 16.3464 11.9913 16.3464C14.2005 16.3464 15.9913 14.5556 15.9913 12.3464C15.9913 10.1373 14.2005 8.34644 11.9913 8.34644C9.7822 8.34644 7.99133 10.1373 7.99133 12.3464Z" fill="white"/>
</svg>
