<svg width="24" height="24" viewBox="0 0 24 24" fill="" xmlns="http://www.w3.org/2000/svg">
<path fill-rule="evenodd" clip-rule="evenodd" d="M11.973 20C15.2544 20 18.4244 18.3631 21.3482 15.5871C22.0735 14.8984 22.7463 14.1738 23.3609 13.4384C23.4883 13.2859 23.9906 12.6739 23.9996 12.0849C24.0101 11.4043 23.5074 10.7369 23.36 10.5606C22.8819 9.98855 22.3685 9.42296 21.8226 8.87578L15.9722 12.1825C15.8768 14.3069 14.1242 16 11.9762 16C11.2865 16 10.6374 15.8254 10.071 15.518L5.66607 18.0077C7.69419 19.2883 9.80938 20 11.973 20ZM18.7619 6.30836L22.1302 4.40455C22.611 4.13279 23.221 4.30226 23.4928 4.78305C23.7645 5.26385 23.5951 5.87392 23.1143 6.14567L1.85541 18.1616C1.37461 18.4333 0.764545 18.2639 0.49279 17.7831C0.221034 17.3023 0.390497 16.6922 0.871295 16.4204L2.50409 15.4975C1.84198 14.8621 1.2244 14.1972 0.65577 13.5225C0.512706 13.3527 0.0060651 12.7253 6.35621e-05 12.0849C-0.00652961 11.3813 0.501655 10.6603 0.659541 10.4731C1.2539 9.7681 1.90171 9.07391 2.5979 8.41291C5.52167 5.63691 8.69165 4 11.973 4C14.3086 4 16.5878 4.82929 18.7619 6.30836ZM7.99539 12.3938L14.3667 8.79258C13.6998 8.29474 12.8725 8 11.9762 8C9.76712 8 7.97626 9.79087 7.97626 12C7.97626 12.1329 7.98274 12.2642 7.99539 12.3938Z" fill=""/>
</svg>
