<svg width="24" height="24" viewBox="0 0 24 24" fill="" xmlns="http://www.w3.org/2000/svg">
<path fill-rule="evenodd" clip-rule="evenodd" d="M0 8C0 3.58172 3.58172 0 8 0H16C20.4183 0 24 3.58172 24 8V16C24 20.4183 20.4183 24 16 24H8C3.58172 24 0 20.4183 0 16V8ZM10.5 7.125C10.5 6.29657 11.1716 5.625 12 5.625C12.8284 5.625 13.5 6.29657 13.5 7.125V10.75H16.75C17.5784 10.75 18.25 11.4216 18.25 12.25C18.25 13.0784 17.5784 13.75 16.75 13.75H13.5V16.875C13.5 17.7034 12.8284 18.375 12 18.375C11.1716 18.375 10.5 17.7034 10.5 16.875V13.75H7C6.17157 13.75 5.5 13.0784 5.5 12.25C5.5 11.4216 6.17157 10.75 7 10.75H10.5V7.125Z" fill=""/>
</svg>
