<svg width="24" height="24" viewBox="0 0 24 24" fill="" xmlns="http://www.w3.org/2000/svg">
<path d="M23.9248 10.6678C23.8869 10.3304 23.4934 10.0767 23.1532 10.0767C22.0536 10.0767 21.0778 9.4313 20.6685 8.43241C20.2508 7.40955 20.5203 6.21688 21.3395 5.46533C21.5976 5.22941 21.629 4.83438 21.4127 4.56016C20.8497 3.84545 20.2102 3.19977 19.5117 2.64023C19.2384 2.42102 18.8368 2.45154 18.5996 2.71402C17.8844 3.50616 16.5996 3.80051 15.6067 3.38628C14.5739 2.95171 13.922 1.90476 13.986 0.781012C14.0071 0.42781 13.7488 0.120899 13.3969 0.0799012C12.5004 -0.0238902 11.5961 -0.0269002 10.6971 0.0728434C10.3496 0.111246 10.0915 0.410892 10.1031 0.759631C10.142 1.87238 9.48271 2.90085 8.45984 3.31985C7.47891 3.72059 6.203 3.42842 5.48923 2.64324C5.25331 2.38459 4.8588 2.35283 4.58365 2.56737C3.86458 3.13168 3.21059 3.77778 2.64244 4.48668C2.42105 4.76224 2.45375 5.16163 2.71395 5.39838C3.54937 6.15492 3.81871 7.35786 3.38496 8.39266C2.97083 9.3792 1.94652 10.0147 0.773985 10.0147C0.393486 10.0025 0.122694 10.2581 0.0806588 10.6041C-0.0247933 11.5054 -0.025935 12.4241 0.075573 13.3327C0.113457 13.6715 0.518555 13.9231 0.86252 13.9231C1.9077 13.8965 2.91053 14.5431 3.33182 15.5672C3.75103 16.5901 3.48118 17.7823 2.6606 18.5348C2.40393 18.7708 2.37113 19.1649 2.58784 19.4388C3.1451 20.149 3.78529 20.7951 4.48588 21.3594C4.76093 21.5809 5.16094 21.5499 5.39935 21.2871C6.11738 20.4931 7.402 20.1992 8.39082 20.6143C9.42666 21.0477 10.0783 22.0946 10.0146 23.2186C9.99378 23.5718 10.2526 23.8797 10.6033 23.9198C11.0621 23.9734 11.5232 24 11.9858 24C12.4249 24 12.864 23.976 13.3032 23.9271C13.6511 23.8887 13.9087 23.5888 13.897 23.2399C13.8568 22.1277 14.5175 21.0991 15.5391 20.6809C16.5266 20.2776 17.7968 20.5728 18.511 21.3568C18.7482 21.615 19.1403 21.6463 19.4166 21.4326C20.1344 20.8697 20.7871 20.2239 21.3578 19.5132C21.5794 19.2381 21.5479 18.8382 21.2863 18.6011C20.4511 17.845 20.1803 16.6416 20.614 15.6078C21.0217 14.6346 22.0079 13.9811 23.0687 13.9811L23.2171 13.985C23.5615 14.013 23.878 13.7478 23.9196 13.3964C24.0255 12.4944 24.0267 11.5767 23.9248 10.6678ZM12.0003 18.9181C8.1794 18.9181 5.08216 15.8209 5.08216 12.0001C5.08216 8.17937 8.1795 5.08213 12.0003 5.08213C15.821 5.08213 18.9184 8.17937 18.9184 12.0001C18.9184 13.297 18.5608 14.51 17.9398 15.5473L14.9106 12.518C15.1299 12.0009 15.2457 11.4403 15.2456 10.8618C15.2456 9.72887 14.8044 8.66387 14.0032 7.86291C13.2023 7.06195 12.1373 6.62084 11.0046 6.62084C10.6266 6.62084 10.2503 6.67107 9.88635 6.77019C9.72693 6.81368 9.59657 6.94508 9.55412 7.10482C9.51073 7.26818 9.55962 7.4356 9.68728 7.56337C9.68728 7.56337 11.1828 9.07042 11.6832 9.57069C11.7356 9.62311 11.7355 9.74818 11.7281 9.79322L11.7235 9.82612C11.673 10.3762 11.5758 11.0365 11.4955 11.2903C11.4847 11.301 11.4746 11.31 11.4636 11.321C11.452 11.3326 11.4415 11.3437 11.4304 11.3551C11.1733 11.4376 10.5028 11.536 9.94396 11.586L9.94406 11.583L9.91894 11.5893C9.91448 11.5899 9.90618 11.5905 9.89517 11.5905C9.83477 11.5905 9.74592 11.5736 9.66517 11.4929C9.14435 10.9721 7.70746 9.54547 7.70746 9.54547C7.57855 9.41698 7.44632 9.38999 7.3582 9.38999C7.1528 9.38999 6.96888 9.53841 6.91096 9.75129C6.51542 11.2151 6.93473 12.7896 8.00555 13.8605C8.80671 14.6616 9.87182 15.1027 11.0047 15.1027C11.5832 15.1027 12.1438 14.9869 12.6608 14.7676L15.723 17.8298C14.6479 18.5177 13.3713 18.9181 12.0003 18.9181Z" fill=""/>
</svg>
