<svg width="24" height="24" viewBox="0 0 24 24" fill="" xmlns="http://www.w3.org/2000/svg">
<path d="M6.04922 1.76917H13.5628L13.552 4.72289C13.5502 5.04808 13.679 5.35616 13.9087 5.58676C14.1384 5.81737 14.4447 5.94528 14.769 5.94528H17.8002V13.1301H19.572V6.15607C19.572 5.37327 19.2558 4.6202 18.701 4.06621L15.513 0.869272C14.9572 0.313478 14.2024 0 13.416 0H5.53396C4.83944 0 4.27734 0.566603 4.27734 1.25932V13.1292H6.04832V1.76917H6.04922ZM15.295 3.09245L16.4246 4.20944L15.295 4.20764V3.09245Z" fill=""/>
<path d="M8.10714 5.45889H10.5159C10.9951 5.45889 11.3843 5.05262 11.3843 4.5725C11.3843 4.09237 10.9951 3.68701 10.5159 3.68701H8.10714C7.62791 3.68701 7.23877 4.09147 7.23877 4.5716C7.23877 5.05172 7.62791 5.45889 8.10714 5.45889Z" fill=""/>
<path d="M15.7847 7.03174H8.10812C7.62889 7.03174 7.23975 7.41368 7.23975 7.892C7.23975 8.37213 7.62889 8.75227 8.10812 8.75227H15.7847C16.2631 8.75227 16.6531 8.37213 16.6531 7.892C16.6531 7.41368 16.264 7.03174 15.7847 7.03174Z" fill=""/>
<path d="M15.7847 10.3267H8.10812C7.62889 10.3267 7.23975 10.7329 7.23975 11.2094C7.23975 11.6887 7.62889 12.0949 8.10812 12.0949H15.7847C16.2631 12.0949 16.6531 11.6887 16.6531 11.2094C16.6531 10.7329 16.264 10.3267 15.7847 10.3267Z" fill=""/>
<path d="M20.7022 8.94043V12.3076L21.2652 13.2273C21.3886 13.4273 21.3931 13.6768 21.2787 13.8813C21.1643 14.0867 20.949 14.2119 20.7148 14.2119H3.25189C3.01768 14.2119 2.80239 14.0849 2.68799 13.8831C2.57359 13.6777 2.57809 13.4282 2.7006 13.2282L3.14739 12.4968V9.1296L0.543182 13.3453C0.188267 13.9192 0 14.5812 0 15.2559V21.7021C0 22.9704 1.02961 24 2.29884 24H21.7003C22.9677 24 23.9982 22.9704 23.9982 21.7021V15.255C23.9982 14.5731 23.8063 13.9056 23.4442 13.3264L20.7022 8.94043Z" fill=""/>
</svg>
